<svg xmlns="http://www.w3.org/2000/svg" width="28.791" height="17.472" viewBox="0 0 28.791 17.472">
  <path id="eye001_-_E037" data-name="eye001 - E037" d="M.011-29.736c-5.292,0-9.429,3.4-14.406,8.736,4.263,4.452,7.875,8.736,14.406,8.736,6.573,0,11.319-5.46,14.385-8.631C11.2-24.7,6.479-29.736.011-29.736Zm0,1.092c5.607,0,9.786,4.074,12.915,7.707C9.881-17.745,5.639-13.356.011-13.356c-5.67,0-8.946-3.486-12.894-7.644C-8.306-25.83-4.651-28.644.011-28.644Zm0,12.054A4.409,4.409,0,0,0,4.42-21a4.409,4.409,0,0,0-4.41-4.41A4.4,4.4,0,0,0-4.4-21,4.4,4.4,0,0,0,.011-16.59Zm0-1.092A3.3,3.3,0,0,1-3.307-21,3.3,3.3,0,0,1,.011-24.318,3.312,3.312,0,0,1,3.329-21,3.312,3.312,0,0,1,.011-17.682Z" transform="translate(14.396 29.736)" fill="#2b2b2b"/>
</svg>
