<svg xmlns="http://www.w3.org/2000/svg" width="22.092" height="22.092" viewBox="0 0 22.092 22.092">
  <path id="check004_-_E105" data-name="check004 - E105" d="M7.14-9.975H-7.14a3.9,3.9,0,0,1-3.906-3.906v-14.28A3.9,3.9,0,0,1-7.14-32.067H7.14a3.9,3.9,0,0,1,3.906,3.906v14.28A3.9,3.9,0,0,1,7.14-9.975Zm-14.28-21a2.814,2.814,0,0,0-2.814,2.814v14.28A2.814,2.814,0,0,0-7.14-11.067H7.14a2.814,2.814,0,0,0,2.814-2.814v-14.28A2.814,2.814,0,0,0,7.14-30.975Zm6.09,15.288-4.767-5.439.84-.714,3.759,4.305,6.132-9.87.924.588Z" transform="translate(11.046 32.067)" fill="#2b2b2b"/>
</svg>
