<svg xmlns="http://www.w3.org/2000/svg" width="30.282" height="28.392" viewBox="0 0 30.282 28.392">
  <path id="printer001_-_E1EA" data-name="printer001 - E1EA" d="M11.865-11.474H8.337V-5.8H-8.337v-5.67h-3.528a3.28,3.28,0,0,1-3.276-3.276V-24.872a3.262,3.262,0,0,1,3.276-3.255h3.528V-34.2H8.337v6.069h3.528a3.262,3.262,0,0,1,3.276,3.255V-14.75A3.28,3.28,0,0,1,11.865-11.474ZM-7.245-6.9H7.245v-4.578H-7.245ZM14.049-24.872a2.178,2.178,0,0,0-2.184-2.163H8.337V-23.3H-8.337v-3.738h-3.528a2.178,2.178,0,0,0-2.184,2.163V-14.75a2.2,2.2,0,0,0,2.184,2.184h23.73a2.2,2.2,0,0,0,2.184-2.184Zm-2.2,9.093a1.008,1.008,0,0,0-1.008-1.008,1.022,1.022,0,0,0-1.008,1.008,1.008,1.008,0,0,0,1.008,1.008A1,1,0,0,0,11.844-15.779ZM7.245-33.1H-7.245v8.715H7.245Z" transform="translate(15.141 -5.804) rotate(180)" fill="#2b2b2b"/>
</svg>
