<svg xmlns="http://www.w3.org/2000/svg" width="14.76" height="23.106" viewBox="0 0 14.76 23.106">
  <path id="_234" data-name="234" d="M-3.859-10.506v3.964H3.472v1.354H-3.859V0H-5.342V-5.188H-7.356V-6.542h2.014v-3.964H-7.356v-1.354h2.014V-23.106H.121a8.133,8.133,0,0,1,5.438,1.587A5.716,5.716,0,0,1,7.4-16.935a6.677,6.677,0,0,1-.677,3.2,5.28,5.28,0,0,1-1.789,1.966A7.1,7.1,0,0,1,2.4-10.78a15.556,15.556,0,0,1-2.941.274Zm0-11.247v9.894h3.4A12.048,12.048,0,0,0,2.3-12.141a5.186,5.186,0,0,0,2-.9,3.881,3.881,0,0,0,1.217-1.587,5.916,5.916,0,0,0,.411-2.32,5.462,5.462,0,0,0-.4-2.216,3.613,3.613,0,0,0-1.184-1.482,5.224,5.224,0,0,0-1.926-.838,11.749,11.749,0,0,0-2.643-.266Z" transform="translate(7.356 23.106)" fill="#2b2b2b"/>
</svg>
