<svg xmlns="http://www.w3.org/2000/svg" width="14.564" height="29.744" viewBox="0 0 14.564 29.744">
  <path id="smartphone001_-_E108" data-name="smartphone001 - E108" d="M4.708-7.128H-4.708a2.543,2.543,0,0,1-1.826-.748A2.619,2.619,0,0,1-7.282-9.7V-34.3a2.619,2.619,0,0,1,.748-1.826,2.543,2.543,0,0,1,1.826-.748H4.708a2.543,2.543,0,0,1,1.826.748A2.619,2.619,0,0,1,7.282-34.3V-9.7a2.619,2.619,0,0,1-.748,1.826A2.543,2.543,0,0,1,4.708-7.128ZM-6.138-32.384H6.138V-34.3A1.451,1.451,0,0,0,5.72-35.31a1.412,1.412,0,0,0-1.012-.418H-4.708a1.412,1.412,0,0,0-1.012.418A1.451,1.451,0,0,0-6.138-34.3Zm0,17.886H6.138V-31.24H-6.138Zm0,1.144V-9.7A1.451,1.451,0,0,0-5.72-8.69a1.412,1.412,0,0,0,1.012.418H4.708A1.412,1.412,0,0,0,5.72-8.69,1.451,1.451,0,0,0,6.138-9.7v-3.652ZM0-9.042a1.77,1.77,0,0,1-1.76-1.782A1.765,1.765,0,0,1,0-12.584a1.765,1.765,0,0,1,1.76,1.76A1.77,1.77,0,0,1,0-9.042Zm0-2.4a.615.615,0,0,0-.616.616A.62.62,0,0,0,0-10.186a.62.62,0,0,0,.616-.638A.615.615,0,0,0,0-11.44Z" transform="translate(7.282 36.872)" fill="#2b2b2b"/>
</svg>
