<svg xmlns="http://www.w3.org/2000/svg" width="24.654" height="28.644" viewBox="0 0 24.654 28.644">
  <path id="stack021_-_E112" data-name="stack021 - E112" d="M8.274-23.835l4.053-2.856L0-35.322l-12.327,8.631,4.053,2.856L-12.327-21l4.053,2.835-4.053,2.856L0-6.678l12.327-8.631L8.274-18.165,12.327-21Zm-18.69-2.856L0-33.978l10.416,7.287L0-19.383ZM10.416-21,0-13.713-10.416-21l3.108-2.184L0-18.06l7.308-5.124Zm0,5.691L0-8.022l-10.416-7.287,3.108-2.184L0-12.369l7.308-5.124Z" transform="translate(12.327 35.322)" fill="#2b2b2b"/>
</svg>
