<svg xmlns="http://www.w3.org/2000/svg" width="102" height="102" viewBox="0 0 102 102">
  <g id="_1" data-name="1" transform="translate(-227 -1936)">
    <circle id="Ellipse_6" data-name="Ellipse 6" cx="51" cy="51" r="51" transform="translate(227 1936)" fill="#4d6219"/>
    <path id="cooking" d="M51.641,1.955A1.143,1.143,0,0,1,53.257.336L53.41.49A1.143,1.143,0,1,1,51.8,2.109ZM51.488,14.7a3.311,3.311,0,1,1-3.3,3.311A3.311,3.311,0,0,1,51.488,14.7Zm0,2.29a1.021,1.021,0,1,0,1.019,1.021A1.021,1.021,0,0,0,51.488,16.992Zm5.175,14.3v1.373a3.243,3.243,0,0,1-3.236,3.243h-.952v6.172A4.921,4.921,0,0,1,47.566,47H21.76a4.921,4.921,0,0,1-4.91-4.921V35.907H15.9a3.243,3.243,0,0,1-3.236-3.243V31.291A3.243,3.243,0,0,1,15.9,28.048h.952V24.665a1.144,1.144,0,0,1,1.142-1.145H51.334a1.144,1.144,0,0,1,1.142,1.145v3.383h.952A3.243,3.243,0,0,1,56.663,31.291ZM16.85,30.338H15.9a.954.954,0,0,0-.952.954v1.373a.954.954,0,0,0,.952.954h.952v-3.28ZM50.191,25.81H19.135V42.079a2.632,2.632,0,0,0,2.626,2.632H47.566a2.632,2.632,0,0,0,2.626-2.632V25.81Zm4.187,5.481a.954.954,0,0,0-.951-.954h-.952v3.28h.952a.954.954,0,0,0,.951-.954V31.291Zm-5.9-22.116a1.137,1.137,0,0,0,.807-.335l.154-.154a1.143,1.143,0,0,0-1.615-1.619l-.154.154a1.145,1.145,0,0,0,.807,1.954ZM39.011,21.257a1.142,1.142,0,1,0,2.284,0,1.636,1.636,0,1,1,3.272,0,1.142,1.142,0,1,0,2.284,0,3.92,3.92,0,1,0-7.841,0ZM17.679,19.544a1.145,1.145,0,0,1,.849-1.377l12.408-2.94-.219-.928a3.247,3.247,0,0,1,2.4-3.9l1.333-.316a3.239,3.239,0,0,1,3.893,2.41l.219.928,12.408-2.94a1.145,1.145,0,0,1,.526,2.228L19.053,20.394a1.14,1.14,0,0,1-1.374-.851ZM32.94,13.771l.219.928,3.185-.755-.219-.928a.95.95,0,0,0-1.145-.709l-1.333.316a.955.955,0,0,0-.707,1.148Z" transform="translate(243.337 1964)" fill="#fff"/>
  </g>
</svg>
