<svg xmlns="http://www.w3.org/2000/svg" width="76" height="76" viewBox="0 0 76 76"><defs><mask id="f43ub" width="2" height="2" x="-1" y="-1"><path fill="#fff" d="M8 6h60v60H8z"/><path d="M38 6C54.569 6 68 19.43 68 36c0 16.568-13.431 30-30 30C21.431 66 8 52.567 8 36 8 19.431 21.431 6 38 6z"/></mask><filter id="f43ua" width="100" height="102" x="-12" y="-14" filterUnits="userSpaceOnUse"><feOffset dy="2" in="SourceGraphic" result="FeOffset1090Out"/><feGaussianBlur in="FeOffset1090Out" result="FeGaussianBlur1091Out" stdDeviation="4 4"/></filter><linearGradient id="f43uc" x1="8" x2="68" y1="66" y2="6" gradientUnits="userSpaceOnUse"><stop offset="0" stop-color="#9969f1"/><stop offset="1" stop-color="#7863ed"/></linearGradient></defs><g><g><g filter="url(#f43ua)"><path fill="none" d="M38 6C54.569 6 68 19.43 68 36c0 16.568-13.431 30-30 30C21.431 66 8 52.567 8 36 8 19.431 21.431 6 38 6z" mask="url(&quot;#f43ub&quot;)"/><path fill-opacity=".26" d="M38 6C54.569 6 68 19.43 68 36c0 16.568-13.431 30-30 30C21.431 66 8 52.567 8 36 8 19.431 21.431 6 38 6z"/></g><path fill="url(#f43uc)" d="M38 6C54.569 6 68 19.43 68 36c0 16.568-13.431 30-30 30C21.431 66 8 52.567 8 36 8 19.431 21.431 6 38 6z"/></g><g><g><text dominant-baseline="text-before-edge" style="line-height:26px" fill="#fdfdfe" font-family="'FontAwesome5FreeSolid','FontAwesome5FreeSolid'" font-size="30" font-style="none" font-weight="400" transform="translate(30 23)"><tspan style="font-kerning:normal"></tspan></text></g></g></g></svg>