<svg xmlns="http://www.w3.org/2000/svg" width="102" height="102" viewBox="0 0 102 102">
  <g id="_2" data-name="2" transform="translate(-227 -1936)">
    <circle id="Ellipse_6" data-name="Ellipse 6" cx="51" cy="51" r="51" transform="translate(227 1936)" fill="#4d6219"/>
    <g id="Group_37" data-name="Group 37">
      <g id="vegetables" transform="translate(256 1965.5)">
        <g id="Group_16" data-name="Group 16">
          <g id="Group_15" data-name="Group 15">
            <path id="Path_2" data-name="Path 2" d="M6.027,38.938l-.008-.006A.859.859,0,0,0,4.973,40.3l.008.006a.859.859,0,0,0,1.045-1.365Z" fill="#fff"/>
          </g>
        </g>
        <g id="Group_18" data-name="Group 18">
          <g id="Group_17" data-name="Group 17">
            <path id="Path_3" data-name="Path 3" d="M6.027,31.891l-.008-.006A.859.859,0,0,0,4.973,33.25l.008.006a.859.859,0,0,0,1.045-1.365Z" fill="#fff"/>
          </g>
        </g>
        <g id="Group_20" data-name="Group 20">
          <g id="Group_19" data-name="Group 19">
            <path id="Path_4" data-name="Path 4" d="M6.027,24.844l-.008-.006A.859.859,0,0,0,4.973,26.2l.008.006a.859.859,0,0,0,1.045-1.365Z" fill="#fff"/>
          </g>
        </g>
        <g id="Group_22" data-name="Group 22">
          <g id="Group_21" data-name="Group 21">
            <path id="Path_5" data-name="Path 5" d="M39.019,38.935l-.008-.006a.859.859,0,0,0-1.038,1.37l.008.006a.859.859,0,1,0,1.038-1.37Z" fill="#fff"/>
          </g>
        </g>
        <g id="Group_24" data-name="Group 24">
          <g id="Group_23" data-name="Group 23">
            <path id="Path_6" data-name="Path 6" d="M39.019,31.888l-.008-.006a.859.859,0,1,0-1.038,1.37l.008.006a.859.859,0,1,0,1.038-1.37Z" fill="#fff"/>
          </g>
        </g>
        <g id="Group_26" data-name="Group 26">
          <g id="Group_25" data-name="Group 25">
            <path id="Path_7" data-name="Path 7" d="M39.019,24.842l-.008-.006a.859.859,0,1,0-1.038,1.37l.008.006a.859.859,0,1,0,1.038-1.37Z" fill="#fff"/>
          </g>
        </g>
        <g id="Group_28" data-name="Group 28">
          <g id="Group_27" data-name="Group 27">
            <path id="Path_8" data-name="Path 8" d="M31.751,28.188H31.74a.859.859,0,1,0,0,1.719h.011a.859.859,0,0,0,0-1.719Z" fill="#fff"/>
          </g>
        </g>
        <g id="Group_30" data-name="Group 30">
          <g id="Group_29" data-name="Group 29">
            <path id="Path_9" data-name="Path 9" d="M12.26,35.234h-.011a.859.859,0,0,0,0,1.719h.011a.859.859,0,1,0,0-1.719Z" fill="#fff"/>
          </g>
        </g>
        <g id="Group_32" data-name="Group 32">
          <g id="Group_31" data-name="Group 31">
            <path id="Path_10" data-name="Path 10" d="M6.943,15.915a.859.859,0,1,0,.252.608A.866.866,0,0,0,6.943,15.915Z" fill="#fff"/>
          </g>
        </g>
        <g id="Group_34" data-name="Group 34">
          <g id="Group_33" data-name="Group 33">
            <path id="Path_11" data-name="Path 11" d="M43.141,21.141H39.571a5.114,5.114,0,0,0-.244-9.007,5.117,5.117,0,0,0-7.173-6.553A5.941,5.941,0,0,0,28.73,4.5c-.084,0-.167,0-.249.006A6.649,6.649,0,0,0,16.2,3.775c-.206-.019-.412-.029-.619-.029A6.653,6.653,0,0,0,9.449,7.812q-.273-.083-.555-.146A3.809,3.809,0,0,1,9.936,5.159,2.3,2.3,0,0,1,11,4.56l-.012,0h0a.859.859,0,0,0-.123-1.709.851.851,0,0,0-.143.013h0a3.762,3.762,0,0,0-1.852.947V.859A.859.859,0,0,0,8.006,0H5.943a.859.859,0,0,0-.859.859V4.073A10.341,10.341,0,0,0,2.945,2.1.859.859,0,0,0,2,3.537C2.033,3.556,4.633,5.3,5.019,7.8A6.836,6.836,0,0,0,0,14.241a39.784,39.784,0,0,0,1.413,6.9H.859A.859.859,0,0,0,0,22V43.141A.859.859,0,0,0,.859,44H43.141A.859.859,0,0,0,44,43.141V22A.859.859,0,0,0,43.141,21.141ZM15.577,5.465a4.969,4.969,0,0,1,.984.1.859.859,0,0,0,.981-.556,4.931,4.931,0,0,1,9.228-.179,5.96,5.96,0,0,0-3.991,5.618.859.859,0,1,0,1.719,0A4.231,4.231,0,0,1,31.536,7.28a.86.86,0,0,0,1.086.044,3.365,3.365,0,0,1,2.036-.678,3.4,3.4,0,0,1,2.726,5.421.859.859,0,0,0,.479,1.347A3.4,3.4,0,0,1,37.03,20.1a3.429,3.429,0,0,1-.644-.062.859.859,0,0,0-.971.556,3.379,3.379,0,0,1-.253.546H34.077L37.6,16.1a.859.859,0,0,0-.229-1.207l-2.506-1.667a.859.859,0,0,0-1.212.271L32.4,15.567l1.026-5.188a.859.859,0,0,0-.67-1.008l-2.187-.45a.859.859,0,0,0-1.018.684l-.281,1.507H27.262a.859.859,0,0,0-.859.859v4.945a6.369,6.369,0,0,0-6.241-5.139,6.3,6.3,0,0,0-3.823,1.277,6.423,6.423,0,0,0-2.065,2.681,9.556,9.556,0,0,0,.163-1.5,6.387,6.387,0,0,0-.873-3.221,3.148,3.148,0,0,1,3.582-2,.859.859,0,0,0,.981-.556,3.17,3.17,0,0,1,.928-1.351.859.859,0,0,0-1.117-1.306,4.9,4.9,0,0,0-1.149,1.439q-.135-.008-.271-.008A4.868,4.868,0,0,0,12.39,9.53,7.2,7.2,0,0,0,11.025,8.5,4.932,4.932,0,0,1,15.577,5.465ZM31.421,20.509l3.237-5.359,1.027.683-3.7,5.307H31.3Zm-1.075-3.425V14.7c0-.018.01-.036.013-.054l.719-3.862.494.1Zm-2.23,2.566a.878.878,0,0,0,.006-.1v-6.72h.505v8.309h-.271q0-.081,0-.162A3.733,3.733,0,0,0,28.116,19.65ZM16.328,15.641l-.076,0a4.638,4.638,0,0,1,8.473,1.652,3.584,3.584,0,0,0-2.895,1.522A6.362,6.362,0,0,0,16.328,15.641Zm4.56,5.5H11.769a4.64,4.64,0,0,1,9.119,0Zm3.862-2.128a1.932,1.932,0,0,1,1.891,1.966c0,.054,0,.108-.007.162H22.866c0-.054-.007-.108-.007-.162A1.932,1.932,0,0,1,24.75,19.012ZM6.8,1.719h.344V7.481c-.115,0-.23,0-.344.01ZM1.77,13.562a.862.862,0,0,0,.166.016H6.184a.859.859,0,0,0,0-1.719H2.372A5.591,5.591,0,0,1,7.219,9.2a5.292,5.292,0,0,1,5.5,5.043,8.7,8.7,0,0,1-.172,1.4H9.133a.859.859,0,0,0,0,1.719h2.854a6.349,6.349,0,0,0-1.958,3.781H3.192a40.7,40.7,0,0,1-1.473-6.9A4.646,4.646,0,0,1,1.77,13.562ZM42.281,28.188H34.719a.859.859,0,0,0,0,1.719h7.563v5.328h-27.1a.859.859,0,0,0,0,1.719h27.1v5.328H1.719V36.953H9.281a.859.859,0,0,0,0-1.719H1.719V29.906h27.1a.859.859,0,0,0,0-1.719H1.719V22.859H42.281Z" fill="#fff"/>
          </g>
        </g>
        <g id="Group_36" data-name="Group 36">
          <g id="Group_35" data-name="Group 35">
            <path id="Path_12" data-name="Path 12" d="M21.095,4.641h-.011a.859.859,0,0,0,0,1.719h.011a.859.859,0,0,0,0-1.719Z" fill="#fff"/>
          </g>
        </g>
      </g>
    </g>
  </g>
</svg>
