<svg xmlns="http://www.w3.org/2000/svg" width="102" height="102" viewBox="0 0 102 102">
  <g id="_3" data-name="3" transform="translate(-227 -1936)">
    <circle id="Ellipse_6" data-name="Ellipse 6" cx="51" cy="51" r="51" transform="translate(227 1936)" fill="#4d6219"/>
    <g id="Group_56" data-name="Group 56">
      <g id="tray" transform="translate(256 1965.5)">
        <g id="Group_39" data-name="Group 39">
          <g id="Group_38" data-name="Group 38">
            <path id="Path_13" data-name="Path 13" d="M39.218,28.737c-.043-.071-.087-.139-.132-.2a2.858,2.858,0,0,0-3.989-.659l-8.2,5.854H18.333a.733.733,0,0,1,0-1.467H23.1A2.57,2.57,0,0,0,25.667,29.7c0-.008,0-.076,0-.083a2.575,2.575,0,0,0-2.624-2.484H13.5a3.68,3.68,0,0,0-2.318.851L7.6,30.97a.735.735,0,0,0-.264.564v8.8a.733.733,0,0,0,.733.733H26.262a5.145,5.145,0,0,0,3.268-1.18l8.89-7.346A2.882,2.882,0,0,0,39.218,28.737Zm-1.69,2.641-8.933,7.378a3.68,3.68,0,0,1-2.334.843H8.8V31.877l3.323-2.766a2.206,2.206,0,0,1,1.385-.511h9.557A1.121,1.121,0,0,1,24.2,29.7a1.1,1.1,0,0,1-1.1,1.1H18.333a2.2,2.2,0,1,0,0,4.4h8.8a.743.743,0,0,0,.428-.136l8.391-5.992A1.392,1.392,0,0,1,37.9,29.4c.022.03.042.061.061.092A1.424,1.424,0,0,1,37.528,31.379Z" fill="#fff"/>
          </g>
        </g>
        <g id="Group_41" data-name="Group 41">
          <g id="Group_40" data-name="Group 40">
            <path id="Path_14" data-name="Path 14" d="M8.045,30.067H0v1.467H7.311v11H0V44H8.045a.733.733,0,0,0,.733-.733V30.8A.733.733,0,0,0,8.045,30.067Z" fill="#fff"/>
          </g>
        </g>
        <g id="Group_43" data-name="Group 43">
          <g id="Group_42" data-name="Group 42">
            <path id="Path_15" data-name="Path 15" d="M3.667,36.667a2.2,2.2,0,1,0,2.2,2.2A2.2,2.2,0,0,0,3.667,36.667Zm0,2.933a.733.733,0,1,1,.733-.733A.734.734,0,0,1,3.667,39.6Z" fill="#fff"/>
          </g>
        </g>
        <g id="Group_45" data-name="Group 45">
          <g id="Group_44" data-name="Group 44">
            <path id="Path_16" data-name="Path 16" d="M43.267,22.733H.733A.733.733,0,0,0,0,23.467,5.139,5.139,0,0,0,5.133,28.6H38.867A5.14,5.14,0,0,0,44,23.467.733.733,0,0,0,43.267,22.733Zm-4.4,4.4H5.133A3.672,3.672,0,0,1,1.541,24.2H42.459A3.672,3.672,0,0,1,38.867,27.133Z" fill="#fff"/>
          </g>
        </g>
        <g id="Group_47" data-name="Group 47">
          <g id="Group_46" data-name="Group 46">
            <path id="Path_17" data-name="Path 17" d="M22,3.667A19.089,19.089,0,0,0,2.933,22.733v.733a.733.733,0,0,0,.733.733H40.333a.733.733,0,0,0,.733-.733v-.733A19.088,19.088,0,0,0,22,3.667ZM4.4,22.733a17.6,17.6,0,1,1,35.2,0Z" fill="#fff"/>
          </g>
        </g>
        <g id="Group_49" data-name="Group 49">
          <g id="Group_48" data-name="Group 48">
            <path id="Path_18" data-name="Path 18" d="M9.938,12.032a16.393,16.393,0,0,0-1.412,1.834l1.222.81a14.986,14.986,0,0,1,1.286-1.671Z" fill="#fff"/>
          </g>
        </g>
        <g id="Group_51" data-name="Group 51">
          <g id="Group_50" data-name="Group 50">
            <path id="Path_19" data-name="Path 19" d="M22,6.6a16.075,16.075,0,0,0-11.04,4.379l1,1.068A14.612,14.612,0,0,1,22,8.067Z" fill="#fff"/>
          </g>
        </g>
        <g id="Group_53" data-name="Group 53">
          <g id="Group_52" data-name="Group 52">
            <rect id="Rectangle_4" data-name="Rectangle 4" width="4.4" height="1.467" transform="translate(19.8)" fill="#fff"/>
          </g>
        </g>
        <g id="Group_55" data-name="Group 55">
          <g id="Group_54" data-name="Group 54">
            <rect id="Rectangle_5" data-name="Rectangle 5" width="1.467" height="3.667" transform="translate(21.267 0.733)" fill="#fff"/>
          </g>
        </g>
      </g>
    </g>
  </g>
</svg>
