<svg xmlns="http://www.w3.org/2000/svg" width="102" height="102" viewBox="0 0 102 102">
  <g id="_4" data-name="4" transform="translate(-227 -1936)">
    <circle id="Ellipse_6" data-name="Ellipse 6" cx="51" cy="51" r="51" transform="translate(227 1936)" fill="#4d6219"/>
    <g id="Group_85" data-name="Group 85">
      <g id="booking" transform="translate(256 1965.5)">
        <g id="Group_58" data-name="Group 58">
          <g id="Group_57" data-name="Group 57">
            <path id="Path_20" data-name="Path 20" d="M40.333,5.867H39.6V2.2A2.2,2.2,0,0,0,37.4,0H35.933a2.2,2.2,0,0,0-2.2,2.2V5.867H10.267V2.2A2.2,2.2,0,0,0,8.067,0H6.6A2.2,2.2,0,0,0,4.4,2.2V5.867H3.667A3.671,3.671,0,0,0,0,9.533v30.8A3.671,3.671,0,0,0,3.667,44H40.333A3.671,3.671,0,0,0,44,40.333V9.533A3.671,3.671,0,0,0,40.333,5.867ZM35.2,6.6V2.2a.734.734,0,0,1,.733-.733H37.4a.734.734,0,0,1,.733.733V9.533a.734.734,0,0,1-.733.733H35.933a.734.734,0,0,1-.733-.733ZM5.867,6.6V2.2A.734.734,0,0,1,6.6,1.467H8.067A.734.734,0,0,1,8.8,2.2V9.533a.734.734,0,0,1-.733.733H6.6a.734.734,0,0,1-.733-.733ZM42.533,40.333a2.2,2.2,0,0,1-2.2,2.2H3.667a2.2,2.2,0,0,1-2.2-2.2V19.067H42.533Zm0-22.733H1.467V9.533a2.2,2.2,0,0,1,2.2-2.2H4.4v2.2a2.2,2.2,0,0,0,2.2,2.2H8.067a2.2,2.2,0,0,0,2.2-2.2v-2.2H33.733v2.2a2.2,2.2,0,0,0,2.2,2.2H37.4a2.2,2.2,0,0,0,2.2-2.2v-2.2h.733a2.2,2.2,0,0,1,2.2,2.2Z" fill="#fff"/>
          </g>
        </g>
        <g id="Group_60" data-name="Group 60">
          <g id="Group_59" data-name="Group 59">
            <path id="Path_21" data-name="Path 21" d="M30.067,9.533H13.933a.733.733,0,0,0-.733.733v4.4a.733.733,0,0,0,.733.733H30.067a.733.733,0,0,0,.733-.733v-4.4A.733.733,0,0,0,30.067,9.533Zm-.733,4.4H14.667V11H29.333Z" fill="#fff"/>
          </g>
        </g>
        <g id="Group_62" data-name="Group 62">
          <g id="Group_61" data-name="Group 61">
            <path id="Path_22" data-name="Path 22" d="M9.533,21.267h-4.4A.733.733,0,0,0,4.4,22v3.667a.733.733,0,0,0,.733.733h4.4a.733.733,0,0,0,.733-.733V22A.733.733,0,0,0,9.533,21.267ZM8.8,24.933H5.867v-2.2H8.8Z" fill="#fff"/>
          </g>
        </g>
        <g id="Group_64" data-name="Group 64">
          <g id="Group_63" data-name="Group 63">
            <path id="Path_23" data-name="Path 23" d="M19.067,21.267h-4.4a.733.733,0,0,0-.733.733v3.667a.733.733,0,0,0,.733.733h4.4a.733.733,0,0,0,.733-.733V22A.733.733,0,0,0,19.067,21.267Zm-.733,3.667H15.4v-2.2h2.933Z" fill="#fff"/>
          </g>
        </g>
        <g id="Group_66" data-name="Group 66">
          <g id="Group_65" data-name="Group 65">
            <path id="Path_24" data-name="Path 24" d="M29.333,21.267h-4.4A.733.733,0,0,0,24.2,22v3.667a.733.733,0,0,0,.733.733h4.4a.733.733,0,0,0,.733-.733V22A.733.733,0,0,0,29.333,21.267ZM28.6,24.933H25.667v-2.2H28.6Z" fill="#fff"/>
          </g>
        </g>
        <g id="Group_68" data-name="Group 68">
          <g id="Group_67" data-name="Group 67">
            <path id="Path_25" data-name="Path 25" d="M38.867,21.267h-4.4a.733.733,0,0,0-.733.733v3.667a.733.733,0,0,0,.733.733h4.4a.733.733,0,0,0,.733-.733V22A.733.733,0,0,0,38.867,21.267Zm-.733,3.667H35.2v-2.2h2.933Z" fill="#fff"/>
          </g>
        </g>
        <g id="Group_70" data-name="Group 70">
          <g id="Group_69" data-name="Group 69">
            <path id="Path_26" data-name="Path 26" d="M9.533,28.6h-4.4a.733.733,0,0,0-.733.733V33a.733.733,0,0,0,.733.733h4.4A.733.733,0,0,0,10.267,33V29.333A.733.733,0,0,0,9.533,28.6ZM8.8,32.267H5.867v-2.2H8.8Z" fill="#fff"/>
          </g>
        </g>
        <g id="Group_72" data-name="Group 72">
          <g id="Group_71" data-name="Group 71">
            <path id="Path_27" data-name="Path 27" d="M19.067,28.6h-4.4a.733.733,0,0,0-.733.733V33a.733.733,0,0,0,.733.733h4.4A.733.733,0,0,0,19.8,33V29.333A.733.733,0,0,0,19.067,28.6Zm-.733,3.667H15.4v-2.2h2.933Z" fill="#fff"/>
          </g>
        </g>
        <g id="Group_74" data-name="Group 74">
          <g id="Group_73" data-name="Group 73">
            <path id="Path_28" data-name="Path 28" d="M29.333,28.6h-4.4a.733.733,0,0,0-.733.733V33a.733.733,0,0,0,.733.733h4.4A.733.733,0,0,0,30.067,33V29.333A.733.733,0,0,0,29.333,28.6ZM28.6,32.267H25.667v-2.2H28.6Z" fill="#fff"/>
          </g>
        </g>
        <g id="Group_76" data-name="Group 76">
          <g id="Group_75" data-name="Group 75">
            <path id="Path_29" data-name="Path 29" d="M38.867,28.6h-4.4a.733.733,0,0,0-.733.733V33a.733.733,0,0,0,.733.733h4.4A.733.733,0,0,0,39.6,33V29.333A.733.733,0,0,0,38.867,28.6Zm-.733,3.667H35.2v-2.2h2.933Z" fill="#fff"/>
          </g>
        </g>
        <g id="Group_78" data-name="Group 78">
          <g id="Group_77" data-name="Group 77">
            <path id="Path_30" data-name="Path 30" d="M9.533,35.933h-4.4a.733.733,0,0,0-.733.733v3.667a.733.733,0,0,0,.733.733h4.4a.733.733,0,0,0,.733-.733V36.667A.733.733,0,0,0,9.533,35.933ZM8.8,39.6H5.867V37.4H8.8Z" fill="#fff"/>
          </g>
        </g>
        <g id="Group_80" data-name="Group 80">
          <g id="Group_79" data-name="Group 79">
            <path id="Path_31" data-name="Path 31" d="M19.067,35.933h-4.4a.733.733,0,0,0-.733.733v3.667a.733.733,0,0,0,.733.733h4.4a.733.733,0,0,0,.733-.733V36.667A.733.733,0,0,0,19.067,35.933ZM18.333,39.6H15.4V37.4h2.933Z" fill="#fff"/>
          </g>
        </g>
        <g id="Group_82" data-name="Group 82">
          <g id="Group_81" data-name="Group 81">
            <path id="Path_32" data-name="Path 32" d="M29.5,35.464l-3.153,3.783-1.632-1.632-1.037,1.037,2.2,2.2a.728.728,0,0,0,.518.215h.033a.738.738,0,0,0,.531-.263l3.667-4.4Z" fill="#fff"/>
          </g>
        </g>
        <g id="Group_84" data-name="Group 84">
          <g id="Group_83" data-name="Group 83">
            <path id="Path_33" data-name="Path 33" d="M38.3,35.464l-3.153,3.783-1.632-1.632-1.037,1.037,2.2,2.2a.728.728,0,0,0,.518.215h.033a.738.738,0,0,0,.531-.263l3.667-4.4Z" fill="#fff"/>
          </g>
        </g>
      </g>
    </g>
  </g>
</svg>
