<svg width="398" height="6" viewBox="0 0 398 6" fill="none" xmlns="http://www.w3.org/2000/svg">
<path d="M398 3L225.575 4.62162C224.649 4.62162 223.891 3.89189 223.891 3C223.891 2.10811 224.649 1.37838 225.575 1.37838L398 3Z" fill="white"/>
<path d="M172.425 4.62162L0 3L172.425 1.37838C173.351 1.37838 174.109 2.10811 174.109 3C174.109 3.89189 173.435 4.62162 172.425 4.62162Z" fill="white"/>
<path d="M198.958 6C200.679 6 202.074 4.65685 202.074 3C202.074 1.34315 200.679 0 198.958 0C197.237 0 195.841 1.34315 195.841 3C195.841 4.65685 197.237 6 198.958 6Z" fill="white"/>
</svg>
