<svg width="170" height="24" viewBox="0 0 170 24" fill="none" xmlns="http://www.w3.org/2000/svg">
<path d="M167.993 6.2686C167.993 6.2686 167.852 6.12613 167.64 5.91243C167.429 5.69873 167.147 5.34256 166.653 4.98639C165.807 4.20281 164.397 3.20554 162.493 2.35073C162.281 2.27949 161.999 2.13702 161.788 1.99456C161.506 1.92332 161.294 1.78085 161.012 1.70962C160.871 1.63838 160.73 1.63838 160.589 1.56715C160.448 1.49592 160.307 1.49592 160.166 1.42468C159.884 1.35345 159.602 1.21098 159.32 1.13975C158.121 0.783575 156.852 0.498639 155.441 0.356171C154.102 0.142468 152.621 0.0712341 151.14 0C149.659 0 148.108 0 146.486 0.142468C142.185 0.569873 138.236 1.49592 134.992 2.56443C133.37 3.1343 131.89 3.70417 130.62 4.27405C129.351 4.84392 128.293 5.41379 127.447 5.8412C125.614 6.4823 123.005 7.55082 119.832 8.7618C118.21 9.33167 116.517 10.044 114.684 10.6139C112.851 11.255 110.947 11.8249 108.902 12.3947C105.94 13.1783 103.049 13.6057 100.37 13.8194C97.7606 14.1044 95.4336 13.6057 93.4592 13.1071C92.472 12.8934 91.5553 12.6084 90.7797 12.3947C90.004 12.181 89.2989 11.9673 88.7348 11.8249C88.1707 11.6824 87.7475 11.5399 87.4655 11.4687C87.1834 11.3975 87.0424 11.3975 87.0424 11.3975C87.0424 11.3975 87.1834 11.4687 87.4655 11.5399C87.7475 11.6824 88.1706 11.8249 88.6642 12.0386C89.1578 12.2523 89.863 12.5372 90.5681 12.8934C91.3438 13.2495 92.19 13.6057 93.1772 13.9619C94.1644 14.3181 95.2221 14.6742 96.4914 14.9592C96.7734 15.0304 97.126 15.1016 97.408 15.1016C97.7606 15.1729 98.0426 15.1729 98.3952 15.2441C98.5362 15.2441 98.7478 15.2441 98.8888 15.3153C99.0299 15.3153 99.2414 15.3153 99.3824 15.3153C99.5235 15.3153 99.735 15.3153 99.876 15.3153C100.017 15.3153 100.229 15.3153 100.37 15.3153C103.12 15.2441 106.152 14.8879 109.254 14.1044C111.37 13.5345 113.344 12.8934 115.178 12.181C117.011 11.4687 118.703 10.6851 120.255 9.97278C123.357 8.47686 125.825 7.19465 127.588 6.2686C128.505 5.91243 129.633 5.55626 130.902 5.12886C132.172 4.70145 133.723 4.27405 135.345 3.91788C138.588 3.1343 142.467 2.42196 146.627 1.99456C148.178 1.85209 149.659 1.78085 151.07 1.78085C152.55 1.78085 153.89 1.78085 155.23 1.92332C156.57 2.06579 157.768 2.20826 158.967 2.42196C159.249 2.49319 159.531 2.56443 159.813 2.63566C159.954 2.63566 160.095 2.7069 160.236 2.7069C160.377 2.77813 160.518 2.77813 160.659 2.77813C160.942 2.84936 161.153 2.9206 161.435 2.99183C161.717 3.06307 161.929 3.1343 162.14 3.20554C164.044 3.84664 165.525 4.63022 166.512 5.20009C167.006 5.48503 167.358 5.76996 167.64 5.91243C167.922 6.12613 167.993 6.2686 167.993 6.2686Z" fill="#2C271B"/>
<path d="M167.57 5.12892C167.57 5.12892 167.429 5.05769 167.147 4.91522C166.865 4.77275 166.442 4.63028 165.948 4.34535C164.89 3.91794 163.339 3.34807 161.294 2.92066C159.249 2.49326 156.781 2.27956 154.031 2.49326C152.691 2.63573 151.21 2.7782 149.8 3.06313C148.319 3.34807 146.838 3.77547 145.358 4.20288C143.313 4.84399 141.409 5.62756 139.576 6.41114C137.813 7.19471 136.12 7.97829 134.569 8.69063C131.537 10.1865 128.998 11.3975 127.306 12.2523C126.389 12.5373 125.261 12.8934 123.992 13.3208C122.652 13.677 121.242 14.1044 119.549 14.5318C117.928 14.9592 116.165 15.4579 114.331 15.8853C112.498 16.3127 110.524 16.8113 108.479 17.0963C105.517 17.5237 102.626 17.5949 100.088 17.1675C99.9465 17.1675 99.8054 17.0963 99.5939 17.0963C99.4529 17.025 99.3118 17.025 99.1003 16.9538C98.8182 16.8826 98.4657 16.8113 98.1836 16.7401C97.9016 16.6688 97.6195 16.5264 97.3374 16.4551C97.0554 16.3839 96.8438 16.2414 96.5618 16.099C95.5746 15.6003 94.7284 14.888 93.8823 14.2469C93.0361 13.6058 92.3309 13.1071 91.5553 12.6797C90.8501 12.2523 90.145 11.9674 89.5809 11.8249C89.0167 11.6825 88.5937 11.6825 88.2411 11.6825C88.1001 11.6825 87.959 11.6825 87.8885 11.6825C87.818 11.6825 87.7475 11.6825 87.7475 11.6825C87.7475 11.6825 87.818 11.6825 87.8885 11.6825C87.959 11.6825 88.1001 11.6825 88.2411 11.6825C88.5232 11.7537 88.9462 11.8249 89.5104 12.0386C90.004 12.2523 90.6386 12.6085 91.2732 13.0359C91.9078 13.5345 92.5425 14.1044 93.3181 14.8168C94.0938 15.5291 94.8694 16.3127 95.9271 17.025C96.2092 17.1675 96.4913 17.3812 96.7733 17.5237C97.0554 17.6661 97.3374 17.8086 97.69 17.9511C97.9721 18.0935 98.3246 18.1648 98.6772 18.3072C98.8182 18.3785 99.0298 18.3785 99.1708 18.4497C99.3119 18.5209 99.5234 18.5209 99.6644 18.5922C100.017 18.6634 100.37 18.7346 100.722 18.8059C101.075 18.8771 101.427 18.9483 101.78 18.9483C102.485 19.0196 103.261 19.0908 104.036 19.0908C105.517 19.162 107.139 19.0196 108.69 18.8059C110.806 18.4497 112.851 17.9511 114.684 17.4524C116.588 16.8826 118.28 16.3127 119.902 15.7428C120.678 15.4579 121.453 15.1729 122.159 14.888C122.37 14.8168 122.511 14.7455 122.723 14.6743C122.864 14.6031 123.075 14.5318 123.216 14.4606C123.569 14.3181 123.851 14.1757 124.203 14.0332C125.473 13.4633 126.53 13.0359 127.447 12.6085C129.28 12.0386 131.96 11.0414 135.063 9.83037C138.236 8.61939 141.832 7.12348 145.851 5.84126C147.332 5.34263 148.742 4.98645 150.153 4.63028C151.563 4.27411 152.903 4.06041 154.243 3.84671C156.852 3.49054 159.249 3.49054 161.223 3.63301C163.198 3.77547 164.82 4.13164 165.948 4.41658C166.935 4.98645 167.57 5.12892 167.57 5.12892Z" fill="#2C271B"/>
<path d="M167.993 6.26844C167.993 6.26844 167.852 6.19721 167.64 5.9835C167.499 5.91227 167.358 5.7698 167.147 5.69857C166.935 5.5561 166.724 5.41363 166.512 5.27116C166.018 4.98623 165.384 4.63006 164.608 4.34512C163.833 4.06018 162.916 3.77525 161.858 3.63278C160.8 3.49031 159.672 3.41908 158.403 3.56154C157.134 3.70401 155.864 3.91771 154.525 4.27389C153.185 4.63006 151.845 5.12869 150.435 5.62733C149.73 5.91227 149.025 6.12597 148.319 6.41091C147.614 6.69585 146.909 6.98078 146.134 7.26572C145.146 7.69312 144.159 8.04929 143.242 8.4767C142.326 8.9041 141.339 9.26027 140.492 9.68768C138.73 10.5425 137.037 11.3261 135.556 12.1096C134.781 12.4658 134.075 12.822 133.37 13.1782C132.665 13.5343 132.031 13.8905 131.396 14.1754C130.197 14.8165 129.14 15.3864 128.293 15.8138C126.46 16.5262 123.851 17.4522 120.678 18.7344C119.126 19.3755 117.434 19.9454 115.53 20.3728C113.697 20.8002 111.722 21.1564 109.678 21.2276C108.197 21.2988 106.716 21.2276 105.306 20.9427L105.024 20.8714C104.953 20.8714 104.883 20.8002 104.742 20.8002C104.601 20.729 104.389 20.729 104.248 20.6577C104.107 20.5865 103.895 20.5865 103.754 20.5153C103.613 20.444 103.402 20.444 103.261 20.3728C102.908 20.3016 102.626 20.1591 102.274 20.0879C101.991 19.9454 101.639 19.8742 101.357 19.7317L101.145 19.6605L100.934 19.5892C100.793 19.518 100.652 19.4468 100.511 19.3755C100.229 19.2331 99.9466 19.0906 99.6645 18.9481C99.1709 18.6632 98.6773 18.307 98.2542 17.9508C97.3376 17.1673 96.5619 16.3837 95.7862 15.7426C95.0106 15.0302 94.2349 14.4604 93.5298 14.033C93.1772 13.8193 92.8246 13.6056 92.4721 13.4631C92.1195 13.3206 91.8374 13.2494 91.5554 13.1782C90.9913 13.0357 90.4977 13.1069 90.2156 13.1782C90.0746 13.1782 89.9335 13.2494 89.863 13.2494C89.7925 13.2494 89.722 13.2494 89.722 13.2494C89.722 13.2494 89.7925 13.2494 89.863 13.2494C89.9335 13.2494 90.0746 13.2494 90.2156 13.2494C90.4977 13.2494 90.9912 13.2494 91.4848 13.4631C91.7669 13.5343 92.049 13.6768 92.331 13.8905C92.6131 14.033 92.8951 14.2467 93.2477 14.5316C93.8823 15.0302 94.517 15.6713 95.2221 16.4549C95.9272 17.1673 96.6324 18.0221 97.5491 18.9481C97.9722 19.3755 98.4658 19.8029 99.0299 20.2303C99.3119 20.444 99.594 20.5865 99.9466 20.729C100.088 20.8002 100.229 20.8714 100.37 21.0139L100.581 21.1564L100.793 21.2988C101.145 21.4413 101.427 21.5838 101.78 21.7262C102.133 21.8687 102.485 21.9399 102.838 22.0824C102.979 22.1537 103.19 22.2249 103.331 22.2961C103.543 22.3674 103.684 22.3674 103.895 22.4386C104.107 22.5098 104.248 22.5098 104.459 22.5811C104.53 22.5811 104.671 22.6523 104.742 22.6523L105.024 22.7235C106.504 23.0797 108.126 23.1509 109.748 23.0797C111.934 23.0085 114.049 22.5811 115.953 22.0112C117.857 21.4413 119.62 20.729 121.171 19.9454C124.204 18.4495 126.742 17.096 128.434 16.17C129.351 15.8138 130.479 15.3864 131.749 14.8878C133.018 14.3891 134.499 13.8193 136.05 13.1782C137.601 12.537 139.364 11.8959 141.127 11.1124C142.044 10.7562 142.96 10.4 143.877 9.97261C144.794 9.61644 145.781 9.18904 146.768 8.83287C147.473 8.54793 148.178 8.263 148.884 7.97806C149.589 7.69312 150.294 7.40819 150.999 7.12325C152.339 6.55338 153.679 6.05474 154.948 5.62733C156.217 5.19993 157.416 4.84376 158.544 4.63006C159.672 4.41635 160.8 4.34512 161.788 4.34512C163.762 4.41635 165.384 4.91499 166.442 5.3424C166.724 5.41363 166.935 5.5561 167.147 5.62733C167.358 5.69857 167.499 5.7698 167.64 5.84104C167.852 6.19721 167.993 6.26844 167.993 6.26844Z" fill="#2C271B"/>
<path d="M164.467 4.7726C164.467 4.7726 164.678 4.84383 164.96 4.91506C165.101 4.9863 165.313 5.05753 165.525 5.12877C165.736 5.2 165.948 5.34247 166.23 5.48494C166.723 5.76987 167.146 6.19728 167.358 6.76715C167.428 6.90962 167.499 7.05209 167.499 7.19455C167.499 7.26579 167.569 7.33702 167.569 7.40826C167.569 7.47949 167.569 7.55073 167.64 7.69319C167.711 8.04936 167.711 8.40553 167.64 8.7617C167.569 9.83022 167.217 10.8275 166.723 11.6111C166.512 12.0385 166.23 12.3234 166.018 12.6083C165.736 12.8933 165.525 13.107 165.313 13.3207C164.749 13.4632 163.973 13.5344 163.127 13.3919C162.633 13.3207 162.14 13.2495 161.717 13.0358C161.505 12.9645 161.294 12.8933 161.082 12.7508C160.941 12.6796 160.871 12.6083 160.8 12.6083C160.73 12.6083 160.73 12.5371 160.659 12.5371L160.589 12.4659L160.518 12.3946C160.306 12.1809 160.236 11.9672 160.165 11.7535C160.095 11.4686 160.095 11.1837 160.165 10.8987C160.306 10.3289 160.659 9.75898 161.012 9.47405C161.223 9.33158 161.364 9.26034 161.576 9.18911H161.646H161.717C161.787 9.18911 161.787 9.18911 161.858 9.18911C161.928 9.18911 161.999 9.18911 162.069 9.26034C162.14 9.26034 162.21 9.33158 162.281 9.33158C162.351 9.33158 162.351 9.40281 162.422 9.40281C162.492 9.47405 162.563 9.47405 162.563 9.47405C162.563 9.47405 162.563 9.40281 162.492 9.33158C162.492 9.26034 162.422 9.26034 162.422 9.18911C162.351 9.11788 162.351 9.04664 162.281 8.97541C162.21 8.90417 162.14 8.83294 162.069 8.7617C161.999 8.7617 161.928 8.69047 161.928 8.69047C161.928 8.69047 161.858 8.69047 161.858 8.61924H161.787C161.505 8.548 161.153 8.47677 160.8 8.61924C160.095 8.83294 159.319 9.40281 158.896 10.3289C158.685 10.7563 158.544 11.3261 158.544 11.9672C158.544 12.2522 158.614 12.6083 158.826 12.8933L158.967 13.107L159.108 13.3207C159.178 13.4632 159.319 13.6056 159.46 13.6769L159.601 13.8193L159.742 13.8906C159.813 13.9618 159.883 14.033 160.024 14.1043C160.165 14.1755 160.377 14.318 160.518 14.3892C160.871 14.5317 161.223 14.6029 161.505 14.6741C161.646 14.6741 161.858 14.7454 161.999 14.7454C162.14 14.7454 162.281 14.7454 162.422 14.7454C162.563 14.7454 162.704 14.7454 162.845 14.7454C162.986 14.7454 163.127 14.7454 163.268 14.7454C163.409 14.7454 163.55 14.6741 163.691 14.6741C163.762 14.6741 163.832 14.6741 163.903 14.6741C163.973 14.6741 164.044 14.6741 164.114 14.6029C164.255 14.5317 164.326 14.5317 164.467 14.5317C164.608 14.4604 164.678 14.4604 164.819 14.3892C165.243 14.2467 165.525 13.9618 165.807 13.8193C166.089 13.7481 166.441 13.6056 166.864 13.3919C167.217 13.1782 167.711 12.8933 168.063 12.4659C168.839 11.6823 169.614 10.4713 169.685 8.97541C169.755 8.40553 169.685 7.9069 169.544 7.33702C169.473 7.19455 169.473 7.05209 169.403 6.98085C169.332 6.83838 169.332 6.76715 169.262 6.62468C169.121 6.41098 169.05 6.19728 168.839 5.98358C168.698 5.76987 168.486 5.6274 168.345 5.48494C168.275 5.4137 168.134 5.34247 168.063 5.27123C167.993 5.2 167.852 5.12877 167.781 5.12877C167.569 5.05753 167.428 4.91506 167.217 4.84383C167.146 4.84383 167.005 4.7726 166.935 4.7726C166.864 4.7726 166.794 4.70136 166.653 4.70136C166.3 4.63013 166.018 4.63013 165.736 4.63013C165.454 4.63013 165.242 4.63013 165.101 4.70136C164.678 4.70136 164.467 4.7726 164.467 4.7726Z" fill="#2C271B"/>
<path d="M94.4463 7.40825C94.4463 7.40825 94.3758 7.40825 94.2348 7.33702C94.0937 7.26579 93.8822 7.19455 93.5296 7.12332C93.3886 7.12332 93.177 7.05208 92.9655 7.05208C92.754 7.05208 92.5424 7.05208 92.2604 7.19455C91.9783 7.33702 91.7667 7.55072 91.6257 7.83566C91.4847 8.1206 91.4847 8.47677 91.5552 8.83294C91.6257 9.47404 91.9783 10.1152 92.4013 10.685C92.6129 10.97 92.895 11.2549 93.2475 11.4686C93.6001 11.6823 94.0232 11.896 94.5168 11.9672C94.7988 11.9672 95.0104 11.9672 95.2925 11.896C95.5745 11.8248 95.7861 11.7535 96.0681 11.6111C96.2797 11.4686 96.4912 11.3261 96.6322 11.1124C96.7732 10.8987 96.9848 10.7563 97.0553 10.5426C97.1964 10.3289 97.2669 10.1152 97.4079 9.90145C97.4784 9.68775 97.6194 9.47404 97.6899 9.26034C97.7604 9.11787 97.7605 9.04664 97.831 8.90417C97.831 8.7617 97.9015 8.69047 97.9015 8.548L97.972 8.3343V8.1206C97.972 7.97813 97.972 7.83566 97.972 7.76443C97.972 7.05208 97.831 6.33974 97.4784 5.69864C97.1258 5.12876 96.7027 4.63012 96.2091 4.27395C95.2219 3.56161 94.1642 3.27668 93.177 3.13421C92.1898 2.99174 91.3436 3.13421 90.568 3.27668C89.7923 3.49038 89.2282 3.77531 88.7346 4.06025C88.4526 4.13149 88.1705 4.27395 87.8884 4.48766C87.8179 4.55889 87.7474 4.55889 87.6769 4.63012C87.6064 4.70136 87.5359 4.77259 87.4653 4.77259C87.3243 4.91506 87.1833 5.05753 87.0423 5.2C86.7602 5.48493 86.4782 5.8411 86.2666 6.19727C86.0551 6.62468 85.8435 7.05208 85.7025 7.62196C85.5614 8.1206 85.632 8.7617 85.773 9.33158C85.914 9.90145 86.1961 10.4713 86.4782 10.8987C87.1128 11.896 88.0295 12.6796 88.9462 13.3919C90.2859 14.4604 91.6962 15.244 92.895 15.9563C94.1642 16.6687 95.222 17.3098 96.1386 17.8797C97.0553 18.4495 97.6899 18.9482 98.1835 19.3756C98.3951 19.5893 98.5361 19.7318 98.6772 19.8742C98.7477 20.0167 98.8182 20.0879 98.8182 20.0879C98.8182 20.0879 98.8182 20.0167 98.7477 19.8742C98.6771 19.7318 98.6066 19.5181 98.3951 19.2331C98.113 18.6632 97.5489 17.9509 96.7028 17.1673C95.9271 16.3838 94.8694 15.5289 93.7411 14.6741C92.6129 13.8193 91.2731 12.9645 90.0039 11.9672C89.1577 11.3261 88.382 10.6138 87.8179 9.90145C87.2538 9.18911 86.9718 8.47677 86.9718 7.76443C86.9718 7.05208 87.3243 6.33974 87.6769 5.76987C87.7474 5.6274 87.8884 5.48493 87.9589 5.34247C88.0295 5.27123 88.0295 5.2 88.1 5.12876C88.1705 5.05753 88.1705 4.98629 88.241 4.98629C88.4526 4.77259 88.6641 4.63012 88.8756 4.48766C89.3692 4.34519 89.9333 4.20272 90.6385 4.13148C91.3436 4.13148 92.1193 4.20272 92.895 4.41642C93.318 4.55889 93.6706 4.70136 94.0937 4.84383C94.4463 5.05753 94.8694 5.27123 95.1514 5.55617C95.504 5.8411 95.7155 6.12604 95.9271 6.48221C96.1386 6.83838 96.2091 7.19455 96.2091 7.62196C96.2091 7.69319 96.2091 7.76442 96.2091 7.83566V7.97813V8.1206L96.1386 8.3343L96.0681 8.548C95.9976 8.69047 95.9976 8.90417 95.9271 9.04664C95.8566 9.18911 95.7861 9.33158 95.7155 9.47404C95.5745 9.75898 95.363 9.97268 95.2219 10.1152C95.0809 10.2576 94.8694 10.3289 94.6578 10.3289C94.2347 10.3289 93.6706 10.0439 93.3181 9.68775C92.895 9.33158 92.6129 8.90417 92.4013 8.47677C92.3308 8.26306 92.2603 8.04936 92.3309 7.90689C92.3309 7.76443 92.4014 7.62196 92.5424 7.55072C92.6834 7.47949 92.8245 7.40825 92.9655 7.33702C93.1065 7.26579 93.318 7.26579 93.4591 7.26579C93.7411 7.26579 94.0232 7.26579 94.1642 7.26579C94.3758 7.40826 94.4463 7.40825 94.4463 7.40825Z" fill="#2C271B"/>
<path d="M1.86151 6.2686C1.86151 6.2686 2.00254 6.12613 2.21408 5.91243C2.42563 5.69873 2.70766 5.34256 3.20126 4.98639C4.04743 4.20281 5.45773 3.20554 7.36162 2.35073C7.57316 2.27949 7.85522 2.13702 8.06676 1.99456C8.34882 1.92332 8.56035 1.78085 8.8424 1.70962C8.98343 1.63838 9.12449 1.63838 9.26552 1.56715C9.40654 1.49592 9.54756 1.49592 9.68858 1.42468C9.97064 1.35345 10.2527 1.21098 10.5348 1.13975C11.7335 0.783575 13.0028 0.498639 14.4131 0.356171C15.7528 0.142468 17.2336 0.0712341 18.7144 0C20.1952 0 21.7466 0 23.3684 0.142468C27.6698 0.569873 31.6185 1.49592 34.8622 2.56443C36.484 3.1343 37.9648 3.70417 39.2341 4.27405C40.5034 4.84392 41.5611 5.41379 42.4072 5.8412C44.2406 6.4823 46.8496 7.55082 50.0228 8.7618C51.6446 9.33167 53.337 10.044 55.1703 10.6139C57.0037 11.255 58.9076 11.8249 60.9525 12.3947C63.9141 13.1783 66.8052 13.6057 69.4847 13.8194C72.0938 14.1044 74.4208 13.6057 76.3952 13.1071C77.3824 12.8934 78.299 12.6084 79.0747 12.3947C79.8504 12.181 80.5555 11.9673 81.1196 11.8249C81.6837 11.6824 82.1068 11.5399 82.3889 11.4687C82.6709 11.3975 82.812 11.3975 82.812 11.3975C82.812 11.3975 82.6709 11.4687 82.3889 11.5399C82.1068 11.6824 81.6837 11.8249 81.1901 12.0386C80.6965 12.2523 79.9914 12.5372 79.2862 12.8934C78.5106 13.2495 77.6644 13.6057 76.6772 13.9619C75.69 14.3181 74.6323 14.6742 73.363 14.9592C73.081 15.0304 72.7284 15.1016 72.4463 15.1016C72.0938 15.1729 71.8117 15.1729 71.4592 15.2441C71.3181 15.2441 71.1066 15.2441 70.9656 15.3153C70.8245 15.3153 70.613 15.3153 70.4719 15.3153C70.3309 15.3153 70.1194 15.3153 69.9783 15.3153C69.8373 15.3153 69.6258 15.3153 69.4847 15.3153C66.7347 15.2441 63.7026 14.8879 60.5999 14.1044C58.4845 13.5345 56.5101 12.8934 54.6767 12.181C52.8433 11.4687 51.151 10.6851 49.5997 9.97278C46.4971 8.47686 44.0291 7.19465 42.2662 6.2686C41.3495 5.91243 40.2213 5.55626 38.952 5.12886C37.6828 4.70145 36.1315 4.27405 34.5096 3.91788C31.266 3.1343 27.3877 2.42196 23.2273 1.99456C21.676 1.85209 20.1952 1.78085 18.785 1.78085C17.3041 1.78085 15.9644 1.78085 14.6246 1.92332C13.2848 2.06579 12.0861 2.20826 10.8873 2.42196C10.6053 2.49319 10.3232 2.56443 10.0412 2.63566C9.90013 2.63566 9.75912 2.7069 9.61809 2.7069C9.47706 2.77813 9.336 2.77813 9.19498 2.77813C8.91292 2.84936 8.70139 2.9206 8.41933 2.99183C8.13728 3.06307 7.92573 3.1343 7.71419 3.20554C5.8103 3.84664 4.3295 4.63022 3.34229 5.20009C2.84869 5.48503 2.49614 5.76996 2.21408 5.91243C1.93203 6.12613 1.86151 6.2686 1.86151 6.2686Z" fill="#2C271B"/>
<path d="M2.28448 5.12892C2.28448 5.12892 2.42554 5.05769 2.7076 4.91522C2.98965 4.77275 3.41271 4.63028 3.90631 4.34535C4.96402 3.91794 6.51536 3.34807 8.56028 2.92066C10.6052 2.49326 13.0732 2.27956 15.8232 2.49326C17.163 2.63573 18.6438 2.7782 20.0541 3.06313C21.5349 3.34807 23.0157 3.77547 24.4965 4.20288C26.5414 4.84399 28.4453 5.62756 30.2787 6.41114C32.0416 7.19471 33.7339 7.97829 35.2852 8.69063C38.3173 10.1865 40.8559 11.3975 42.5482 12.2523C43.4649 12.5373 44.5931 12.8934 45.8624 13.3208C47.2021 13.677 48.6124 14.1044 50.3048 14.5318C51.9266 14.9592 53.6895 15.4579 55.5228 15.8853C57.3562 16.3127 59.3306 16.8113 61.3755 17.0963C64.3371 17.5237 67.2282 17.5949 69.7667 17.1675C69.9078 17.1675 70.0488 17.0963 70.2603 17.0963C70.4014 17.025 70.5424 17.025 70.754 16.9538C71.036 16.8826 71.3886 16.8113 71.6706 16.7401C71.9527 16.6688 72.2348 16.5264 72.5168 16.4551C72.7989 16.3839 73.0104 16.2414 73.2924 16.099C74.2797 15.6003 75.1258 14.888 75.972 14.2469C76.8182 13.6058 77.5233 13.1071 78.299 12.6797C79.0041 12.2523 79.7093 11.9674 80.2734 11.8249C80.8375 11.6825 81.2606 11.6825 81.6131 11.6825C81.7542 11.6825 81.8952 11.6825 81.9657 11.6825C82.0362 11.6825 82.1067 11.6825 82.1067 11.6825C82.1067 11.6825 82.0362 11.6825 81.9657 11.6825C81.8952 11.6825 81.7542 11.6825 81.6131 11.6825C81.3311 11.7537 80.908 11.8249 80.3439 12.0386C79.8503 12.2523 79.2157 12.6085 78.581 13.0359C77.9464 13.5345 77.3118 14.1044 76.5361 14.8168C75.7604 15.5291 74.9848 16.3127 73.9271 17.025C73.645 17.1675 73.363 17.3812 73.0809 17.5237C72.7989 17.6661 72.5168 17.8086 72.1642 17.9511C71.8822 18.0935 71.5296 18.1648 71.177 18.3072C71.036 18.3785 70.8244 18.3785 70.6834 18.4497C70.5424 18.5209 70.3308 18.5209 70.1898 18.5922C69.8372 18.6634 69.4847 18.7346 69.1321 18.8059C68.7795 18.8771 68.4269 18.9483 68.0744 18.9483C67.3692 19.0196 66.5936 19.0908 65.8179 19.0908C64.3371 19.162 62.7153 19.0196 61.164 18.8059C59.0485 18.4497 57.0036 17.9511 55.1703 17.4524C53.2664 16.8826 51.574 16.3127 49.9522 15.7428C49.1766 15.4579 48.4009 15.1729 47.6957 14.888C47.4842 14.8168 47.3432 14.7455 47.1316 14.6743C46.9906 14.6031 46.7791 14.5318 46.638 14.4606C46.2855 14.3181 46.0034 14.1757 45.6508 14.0332C44.3816 13.4633 43.3239 13.0359 42.4072 12.6085C40.5738 12.0386 37.8943 11.0414 34.7916 9.83037C31.6185 8.61939 28.0222 7.12348 24.0029 5.84126C22.5221 5.34263 21.1118 4.98645 19.7015 4.63028C18.2913 4.27411 16.9515 4.06041 15.6117 3.84671C13.0027 3.49054 10.6052 3.49054 8.63078 3.63301C6.65637 3.77547 5.03454 4.13164 3.90631 4.41658C2.91911 4.98645 2.28448 5.12892 2.28448 5.12892Z" fill="#2C271B"/>
<path d="M1.86151 6.26844C1.86151 6.26844 2.00254 6.19721 2.21408 5.9835C2.35511 5.91227 2.49615 5.7698 2.70769 5.69857C2.91924 5.5561 3.13075 5.41363 3.3423 5.27116C3.8359 4.98623 4.47053 4.63006 5.24619 4.34512C6.02185 4.06018 6.93855 3.77525 7.99627 3.63278C9.05398 3.49031 10.1822 3.41908 11.4514 3.56154C12.7207 3.70401 13.99 3.91771 15.3297 4.27389C16.6695 4.63006 18.0093 5.12869 19.4196 5.62733C20.1247 5.91227 20.8298 6.12597 21.535 6.41091C22.2401 6.69585 22.9453 6.98078 23.721 7.26572C24.7082 7.69312 25.6953 8.04929 26.612 8.4767C27.5287 8.9041 28.5159 9.26027 29.3621 9.68768C31.125 10.5425 32.8173 11.3261 34.2981 12.1096C35.0738 12.4658 35.7789 12.822 36.484 13.1782C37.1892 13.5343 37.8238 13.8905 38.4584 14.1754C39.6572 14.8165 40.7149 15.3864 41.5611 15.8138C43.3945 16.5262 46.0035 17.4522 49.1766 18.7344C50.7279 19.3755 52.4203 19.9454 54.3242 20.3728C56.1575 20.8002 58.132 21.1564 60.1769 21.2276C61.6577 21.2988 63.1385 21.2276 64.5487 20.9427L64.8308 20.8714C64.9013 20.8714 64.9719 20.8002 65.1129 20.8002C65.2539 20.729 65.4654 20.729 65.6065 20.6577C65.7475 20.5865 65.959 20.5865 66.1001 20.5153C66.2411 20.444 66.4527 20.444 66.5937 20.3728C66.9463 20.3016 67.2283 20.1591 67.5809 20.0879C67.863 19.9454 68.2155 19.8742 68.4976 19.7317L68.7091 19.6605L68.9206 19.5892C69.0617 19.518 69.2027 19.4468 69.3438 19.3755C69.6258 19.2331 69.9078 19.0906 70.1899 18.9481C70.6835 18.6632 71.1771 18.307 71.6002 17.9508C72.5169 17.1673 73.2925 16.3837 74.0682 15.7426C74.8438 15.0302 75.6195 14.4604 76.3246 14.033C76.6772 13.8193 77.0298 13.6056 77.3824 13.4631C77.7349 13.3206 78.017 13.2494 78.299 13.1782C78.8632 13.0357 79.3568 13.1069 79.6388 13.1782C79.7799 13.1782 79.9209 13.2494 79.9914 13.2494C80.0619 13.2494 80.1324 13.2494 80.1324 13.2494C80.1324 13.2494 80.0619 13.2494 79.9914 13.2494C79.9209 13.2494 79.7799 13.2494 79.6388 13.2494C79.3568 13.2494 78.8632 13.2494 78.3696 13.4631C78.0875 13.5343 77.8055 13.6768 77.5234 13.8905C77.2413 14.033 76.9593 14.2467 76.6067 14.5316C75.9721 15.0302 75.3375 15.6713 74.6323 16.4549C73.9272 17.1673 73.222 18.0221 72.3053 18.9481C71.8822 19.3755 71.3887 19.8029 70.8245 20.2303C70.5425 20.444 70.2604 20.5865 69.9079 20.729C69.7668 20.8002 69.6258 20.8714 69.4847 21.0139L69.2732 21.1564L69.0617 21.2988C68.7091 21.4413 68.427 21.5838 68.0745 21.7262C67.7219 21.8687 67.3693 21.9399 67.0167 22.0824C66.8757 22.1537 66.6642 22.2249 66.5232 22.2961C66.3116 22.3674 66.1706 22.3674 65.959 22.4386C65.7475 22.5098 65.6065 22.5098 65.3949 22.5811C65.3244 22.5811 65.1834 22.6523 65.1129 22.6523L64.8308 22.7235C63.35 23.0797 61.7282 23.1509 60.1063 23.0797C57.9204 23.0085 55.805 22.5811 53.9011 22.0112C51.9972 21.4413 50.2343 20.729 48.683 19.9454C45.6509 18.4495 43.1124 17.096 41.42 16.17C40.5034 15.8138 39.3751 15.3864 38.1059 14.8878C36.8366 14.3891 35.3558 13.8193 33.8045 13.1782C32.2532 12.537 30.4903 11.8959 28.7275 11.1124C27.8108 10.7562 26.8941 10.4 25.9774 9.97261C25.0607 9.61644 24.0735 9.18904 23.0863 8.83287C22.3812 8.54793 21.676 8.263 20.9709 7.97806C20.2657 7.69312 19.5606 7.40819 18.8555 7.12325C17.5157 6.55338 16.1759 6.05474 14.9067 5.62733C13.6374 5.19993 12.4386 4.84376 11.3104 4.63006C10.1822 4.41635 9.05397 4.34512 8.06677 4.34512C6.09236 4.41635 4.47055 4.91499 3.41284 5.3424C3.13078 5.41363 2.91924 5.5561 2.70769 5.62733C2.49615 5.69857 2.35511 5.7698 2.21408 5.84104C2.00254 6.19721 1.86151 6.26844 1.86151 6.26844Z" fill="#2C271B"/>
<path d="M5.38711 4.7726C5.38711 4.7726 5.17556 4.84383 4.8935 4.91506C4.75247 4.9863 4.54094 5.05753 4.32939 5.12877C4.11785 5.2 3.9063 5.34247 3.62425 5.48494C3.13065 5.76987 2.70753 6.19728 2.49599 6.76715C2.42547 6.90962 2.35499 7.05209 2.35499 7.19455C2.35499 7.26579 2.28445 7.33702 2.28445 7.40826C2.28445 7.47949 2.28447 7.55073 2.21396 7.69319C2.14344 8.04936 2.14344 8.40553 2.21396 8.7617C2.28447 9.83022 2.63704 10.8275 3.13064 11.6111C3.34218 12.0385 3.62424 12.3234 3.83578 12.6083C4.11784 12.8933 4.32938 13.107 4.54093 13.3207C5.10504 13.4632 5.88068 13.5344 6.72686 13.3919C7.22046 13.3207 7.71406 13.2495 8.13715 13.0358C8.34869 12.9645 8.56025 12.8933 8.7718 12.7508C8.91283 12.6796 8.98336 12.6083 9.05387 12.6083C9.12439 12.6083 9.12435 12.5371 9.19487 12.5371L9.26541 12.4659L9.3359 12.3946C9.54745 12.1809 9.61796 11.9672 9.68848 11.7535C9.75899 11.4686 9.75899 11.1837 9.68848 10.8987C9.54745 10.3289 9.19487 9.75898 8.84229 9.47405C8.63075 9.33158 8.48973 9.26034 8.27819 9.18911H8.20769H8.13715C8.06663 9.18911 8.06667 9.18911 7.99615 9.18911C7.92564 9.18911 7.85509 9.18911 7.78458 9.26034C7.71406 9.26034 7.64356 9.33158 7.57304 9.33158C7.50253 9.33158 7.50252 9.40281 7.432 9.40281C7.36149 9.47405 7.29101 9.47405 7.29101 9.47405C7.29101 9.47405 7.29099 9.40281 7.36151 9.33158C7.36151 9.26034 7.432 9.26034 7.432 9.18911C7.50252 9.11788 7.50253 9.04664 7.57304 8.97541C7.64356 8.90417 7.71406 8.83294 7.78458 8.7617C7.85509 8.7617 7.92561 8.69047 7.92561 8.69047C7.92561 8.69047 7.99615 8.69047 7.99615 8.61924H8.06665C8.34871 8.548 8.7013 8.47677 9.05387 8.61924C9.75902 8.83294 10.5346 9.40281 10.9577 10.3289C11.1693 10.7563 11.3103 11.3261 11.3103 11.9672C11.3103 12.2522 11.2398 12.6083 11.0283 12.8933L10.8872 13.107L10.7462 13.3207C10.6757 13.4632 10.5347 13.6056 10.3936 13.6769L10.2526 13.8193L10.1116 13.8906C10.0411 13.9618 9.97054 14.033 9.82951 14.1043C9.68849 14.1755 9.47693 14.318 9.3359 14.3892C8.98333 14.5317 8.63078 14.6029 8.34873 14.6741C8.2077 14.6741 7.99615 14.7454 7.85512 14.7454C7.71409 14.7454 7.57303 14.7454 7.432 14.7454C7.29098 14.7454 7.14996 14.7454 7.00893 14.7454C6.86791 14.7454 6.72689 14.7454 6.58586 14.7454C6.44484 14.7454 6.30378 14.6741 6.16275 14.6741C6.09224 14.6741 6.02173 14.6741 5.95122 14.6741C5.8807 14.6741 5.8102 14.6741 5.73968 14.6029C5.59865 14.5317 5.52814 14.5317 5.38711 14.5317C5.24608 14.4604 5.17557 14.4604 5.03454 14.3892C4.61145 14.2467 4.32937 13.9618 4.04732 13.8193C3.76526 13.7481 3.41269 13.6056 2.9896 13.3919C2.63703 13.1782 2.14342 12.8933 1.79084 12.4659C1.01518 11.6823 0.239534 10.4713 0.169019 8.97541C0.0985046 8.40553 0.169028 7.9069 0.310057 7.33702C0.380571 7.19455 0.38058 7.05209 0.451094 6.98085C0.521609 6.83838 0.521617 6.76715 0.592132 6.62468C0.733161 6.41098 0.803658 6.19728 1.0152 5.98358C1.15623 5.76987 1.36778 5.6274 1.50881 5.48494C1.57933 5.4137 1.72033 5.34247 1.79084 5.27123C1.86136 5.2 2.0024 5.12877 2.07292 5.12877C2.28446 5.05753 2.42548 4.91506 2.63703 4.84383C2.70754 4.84383 2.84859 4.7726 2.9191 4.7726C2.98962 4.7726 3.06011 4.70136 3.20113 4.70136C3.55371 4.63013 3.8358 4.63013 4.11786 4.63013C4.39992 4.63013 4.61143 4.63013 4.75246 4.70136C5.17555 4.70136 5.38711 4.7726 5.38711 4.7726Z" fill="#2C271B"/>
<path d="M75.4078 7.40825C75.4078 7.40825 75.4783 7.40825 75.6193 7.33702C75.7604 7.26579 75.9719 7.19455 76.3245 7.12332C76.4655 7.12332 76.677 7.05208 76.8886 7.05208C77.1001 7.05208 77.3117 7.05208 77.5937 7.19455C77.8758 7.33702 78.0873 7.55072 78.2284 7.83566C78.3694 8.1206 78.3694 8.47677 78.2989 8.83294C78.2284 9.47404 77.8758 10.1152 77.4527 10.685C77.2412 10.97 76.9591 11.2549 76.6065 11.4686C76.254 11.6823 75.8309 11.896 75.3373 11.9672C75.0552 11.9672 74.8437 11.9672 74.5616 11.896C74.2796 11.8248 74.068 11.7535 73.786 11.6111C73.5744 11.4686 73.3629 11.3261 73.2219 11.1124C73.0808 10.8987 72.8693 10.7563 72.7988 10.5426C72.6577 10.3289 72.5872 10.1152 72.4462 9.90145C72.3757 9.68775 72.2347 9.47404 72.1641 9.26034C72.0936 9.11787 72.0936 9.04664 72.0231 8.90417C72.0231 8.7617 71.9526 8.69047 71.9526 8.548L71.8821 8.3343V8.1206C71.8821 7.97813 71.8821 7.83566 71.8821 7.76443C71.8821 7.05208 72.0231 6.33974 72.3757 5.69864C72.7283 5.12876 73.1513 4.63012 73.6449 4.27395C74.6321 3.56161 75.6898 3.27668 76.677 3.13421C77.6642 2.99174 78.5104 3.13421 79.2861 3.27668C80.0617 3.49038 80.6258 3.77531 81.1194 4.06025C81.4015 4.13149 81.6836 4.27395 81.9656 4.48766C82.0361 4.55889 82.1067 4.55889 82.1772 4.63012C82.2477 4.70136 82.3182 4.77259 82.3887 4.77259C82.5298 4.91506 82.6708 5.05753 82.8118 5.2C83.0939 5.48493 83.3759 5.8411 83.5875 6.19727C83.799 6.62468 84.0106 7.05208 84.1516 7.62196C84.2926 8.1206 84.2221 8.7617 84.0811 9.33158C83.94 9.90145 83.658 10.4713 83.3759 10.8987C82.7413 11.896 81.8246 12.6796 80.9079 13.3919C79.5681 14.4604 78.1579 15.244 76.9591 15.9563C75.6899 16.6687 74.6321 17.3098 73.7154 17.8797C72.7987 18.4495 72.1641 18.9482 71.6705 19.3756C71.459 19.5893 71.318 19.7318 71.1769 19.8742C71.1064 20.0167 71.0359 20.0879 71.0359 20.0879C71.0359 20.0879 71.0359 20.0167 71.1064 19.8742C71.1769 19.7318 71.2475 19.5181 71.459 19.2331C71.7411 18.6632 72.3051 17.9509 73.1513 17.1673C73.927 16.3838 74.9847 15.5289 76.1129 14.6741C77.2412 13.8193 78.5809 12.9645 79.8502 11.9672C80.6964 11.3261 81.4721 10.6138 82.0362 9.90145C82.6003 9.18911 82.8823 8.47677 82.8823 7.76443C82.8823 7.05208 82.5297 6.33974 82.1772 5.76987C82.1067 5.6274 81.9656 5.48493 81.8951 5.34247C81.8246 5.27123 81.8246 5.2 81.7541 5.12876C81.6836 5.05753 81.6836 4.98629 81.6131 4.98629C81.4015 4.77259 81.19 4.63012 80.9785 4.48766C80.4849 4.34519 79.9207 4.20272 79.2156 4.13148C78.5104 4.13148 77.7348 4.20272 76.9591 4.41642C76.536 4.55889 76.1835 4.70136 75.7604 4.84383C75.4078 5.05753 74.9847 5.27123 74.7026 5.55617C74.3501 5.8411 74.1386 6.12604 73.927 6.48221C73.7155 6.83838 73.6449 7.19455 73.6449 7.62196C73.6449 7.69319 73.6449 7.76442 73.6449 7.83566V7.97813V8.1206L73.7154 8.3343L73.786 8.548C73.8565 8.69047 73.8565 8.90417 73.927 9.04664C73.9975 9.18911 74.068 9.33158 74.1385 9.47404C74.2796 9.75898 74.4911 9.97268 74.6322 10.1152C74.7732 10.2576 74.9847 10.3289 75.1963 10.3289C75.6193 10.3289 76.1834 10.0439 76.536 9.68775C76.9591 9.33158 77.2412 8.90417 77.4527 8.47677C77.5232 8.26306 77.5937 8.04936 77.5232 7.90689C77.5232 7.76443 77.4527 7.62196 77.3117 7.55072C77.1707 7.47949 77.0296 7.40825 76.8886 7.33702C76.7476 7.26579 76.536 7.26579 76.395 7.26579C76.113 7.26579 75.8309 7.26579 75.6899 7.26579C75.4783 7.40826 75.4078 7.40825 75.4078 7.40825Z" fill="#2C271B"/>
</svg>
