<svg xmlns="http://www.w3.org/2000/svg" xmlns:xlink="http://www.w3.org/1999/xlink" width="15.975" height="16" viewBox="0 0 15.975 16">
  <defs>
    <clipPath id="clip-path">
      <rect width="15.975" height="16" fill="none"/>
    </clipPath>
  </defs>
  <g id="Instagram" clip-path="url(#clip-path)">
    <path id="Exclusion_2" data-name="Exclusion 2" d="M11,14H3a3,3,0,0,1-3-3V3A3,3,0,0,1,3,0h8a3,3,0,0,1,3,3v8A3,3,0,0,1,11,14ZM6.979,3.631a3.345,3.345,0,1,0,3.347,3.345A3.35,3.35,0,0,0,6.979,3.631Zm4.188-1.987A1.161,1.161,0,1,0,12.327,2.8,1.162,1.162,0,0,0,11.167,1.643ZM6.979,9.149A2.173,2.173,0,1,1,9.154,6.975,2.177,2.177,0,0,1,6.979,9.149Z" transform="translate(1 1.001)" fill="#2b2b2b"/>
    <g id="bxl-instagram" transform="translate(0 0)">
      <path id="Path_29" data-name="Path 29" d="M18.554,5.76a4.085,4.085,0,0,0-2.336-2.335,5.86,5.86,0,0,0-1.939-.373c-.854-.037-1.125-.048-3.291-.048s-2.444,0-3.291.048a5.814,5.814,0,0,0-1.937.373A4.081,4.081,0,0,0,3.423,5.76,5.842,5.842,0,0,0,3.052,7.7C3.014,8.553,3,8.824,3,10.991s0,2.442.05,3.291a5.851,5.851,0,0,0,.372,1.94A4.09,4.09,0,0,0,5.76,18.557a5.841,5.841,0,0,0,1.938.4c.854.037,1.125.049,3.291.049s2.444,0,3.291-.049a5.868,5.868,0,0,0,1.939-.372,4.092,4.092,0,0,0,2.336-2.336,5.842,5.842,0,0,0,.372-1.939c.038-.853.05-1.124.05-3.291s0-2.442-.05-3.291A5.838,5.838,0,0,0,18.554,5.76Zm-1.081,8.456a4.474,4.474,0,0,1-.276,1.5,2.65,2.65,0,0,1-1.519,1.518,4.422,4.422,0,0,1-1.481.276c-.843.039-1.081.049-3.242.049s-2.384,0-3.242-.049a4.4,4.4,0,0,1-1.481-.276,2.648,2.648,0,0,1-1.525-1.518,4.507,4.507,0,0,1-.276-1.481c-.038-.843-.047-1.081-.047-3.242s0-2.383.047-3.242a4.469,4.469,0,0,1,.276-1.5A2.649,2.649,0,0,1,6.233,4.734a4.444,4.444,0,0,1,1.481-.276c.844-.038,1.081-.049,3.242-.049s2.384,0,3.242.049a4.4,4.4,0,0,1,1.481.276A2.653,2.653,0,0,1,17.2,6.253a4.507,4.507,0,0,1,.276,1.481c.038.844.048,1.081.048,3.242s0,2.393-.038,3.242h-.01Z" transform="translate(-3.002 -3.005)" fill="#2b2b2b"/>
    </g>
  </g>
</svg>
