<svg width="80" height="42" viewBox="0 0 80 42" fill="none" xmlns="http://www.w3.org/2000/svg">
<path d="M0 41.6979H1.2012V37.4509H3.1548V41.6979H4.3692V36.578H0V41.6979Z" fill="white"/>
<path d="M5.37231 41.6979H8.71192V40.786H6.58672V39.5614H8.21032V38.6885H6.58672V37.49H8.71192V36.578H5.37231V41.6979Z" fill="white"/>
<path d="M12.8832 37.0601C12.7116 36.9037 12.5004 36.7865 12.2364 36.7083C11.9724 36.6171 11.6556 36.578 11.2992 36.578H9.46445V41.6979H10.6656V39.9913H11.2992C11.6556 39.9913 11.9724 39.9522 12.2364 39.861C12.5004 39.7698 12.7116 39.6526 12.8832 39.5093C13.0548 39.3529 13.1868 39.1705 13.266 38.9621C13.3452 38.7536 13.3848 38.5191 13.3848 38.2586C13.3848 38.0241 13.3452 37.8026 13.266 37.5942C13.1736 37.3857 13.0548 37.2034 12.8832 37.0601ZM11.9592 38.8709C11.8272 39.0142 11.5896 39.0924 11.286 39.0924H10.6524V37.4639H11.286C11.4444 37.4639 11.5632 37.4769 11.682 37.516C11.7876 37.5551 11.88 37.6072 11.9592 37.6724C12.0252 37.7375 12.0912 37.8287 12.1176 37.9199C12.1572 38.0111 12.1704 38.1283 12.1704 38.2456C12.1704 38.5061 12.1044 38.7146 11.9592 38.8709Z" fill="white"/>
<path d="M17.0014 39.0403C17.1598 38.9881 17.2918 38.923 17.4106 38.8448C17.5162 38.7667 17.6086 38.6885 17.6878 38.5843C17.767 38.4801 17.8066 38.3889 17.8462 38.2846C17.8858 38.1804 17.899 38.0632 17.899 37.9459C17.899 37.7375 17.8594 37.5421 17.7934 37.3727C17.7274 37.2034 17.6086 37.0601 17.4502 36.9428C17.2918 36.8256 17.0806 36.7344 16.8298 36.6692C16.579 36.6041 16.2754 36.565 15.919 36.565H14.005V41.6979H16.0774C16.3942 41.6979 16.6714 41.6588 16.909 41.5806C17.1466 41.5025 17.3578 41.3982 17.5162 41.2549C17.6878 41.1116 17.8066 40.9553 17.8858 40.7599C17.965 40.5775 18.0178 40.3691 18.0178 40.1476C18.0178 39.861 17.9386 39.6135 17.767 39.4311C17.5954 39.2617 17.3446 39.1314 17.0014 39.0403ZM15.193 37.4639H15.8926C16.0246 37.4639 16.1434 37.4769 16.249 37.49C16.3414 37.516 16.4338 37.5421 16.4866 37.5942C16.5526 37.6463 16.5922 37.7114 16.6318 37.7896C16.6582 37.8678 16.6846 37.972 16.6846 38.0892C16.6846 38.2195 16.6714 38.3107 16.6318 38.4019C16.5922 38.4801 16.5394 38.5452 16.4602 38.5973C16.381 38.6494 16.2886 38.6755 16.183 38.7015C16.0774 38.7146 15.9586 38.7276 15.8266 38.7276H15.193V37.4639ZM16.7902 40.3691C16.7638 40.4472 16.7242 40.5254 16.6714 40.5775C16.6186 40.6426 16.5394 40.6948 16.4338 40.7338C16.3282 40.7729 16.1962 40.799 16.0378 40.799H15.193V39.5223H16.0378C16.1962 39.5223 16.315 39.5353 16.4206 39.5614C16.5262 39.5874 16.6054 39.6265 16.6582 39.6786C16.7242 39.7307 16.7638 39.7959 16.7902 39.874C16.8166 39.9522 16.8298 40.0303 16.8298 40.1215C16.8166 40.2127 16.8034 40.2909 16.7902 40.3691Z" fill="white"/>
<path d="M24.8819 36.6822C24.6311 36.7604 24.4331 36.8646 24.2615 37.0079C24.0899 37.1512 23.9579 37.3076 23.8787 37.49C23.7863 37.6723 23.7467 37.8808 23.7467 38.1023C23.7467 38.2586 23.7731 38.4019 23.8127 38.5322C23.8523 38.6624 23.9183 38.7927 24.0107 38.91C24.1031 39.0272 24.2087 39.1184 24.3407 39.2096C24.4727 39.3008 24.6311 39.3659 24.8159 39.418C24.6839 39.4702 24.5783 39.5353 24.4727 39.6265C24.3803 39.7047 24.2879 39.8089 24.2087 39.9391L23.2583 41.4894L21.3179 36.552H20.0903L18.0707 41.6979H19.0079C19.1135 41.6979 19.1927 41.6718 19.2587 41.6197C19.3247 41.5676 19.3775 41.5025 19.4039 41.4373L19.7075 40.5384H21.6875L21.9911 41.4373C22.0307 41.5155 22.0703 41.5676 22.1363 41.6197C22.2023 41.6718 22.2815 41.6979 22.3871 41.6979H23.1263H23.3243H24.0503C24.2219 41.6979 24.3671 41.6588 24.4991 41.5937C24.6179 41.5285 24.7235 41.4243 24.7895 41.307L25.5155 40.0043C25.5947 39.861 25.6739 39.7698 25.7663 39.7307C25.8587 39.6786 25.9643 39.6525 26.0699 39.6525H26.4395V41.6979H27.6407V36.578H25.7003C25.3967 36.578 25.1195 36.6041 24.8819 36.6822ZM19.9979 39.7437L20.4731 38.3498C20.5127 38.2586 20.5523 38.1544 20.5919 38.0371C20.6315 37.9199 20.6711 37.7766 20.7107 37.6333C20.7503 37.7766 20.7899 37.9068 20.8295 38.0241C20.8691 38.1413 20.9087 38.2456 20.9483 38.3368L21.4235 39.7437H19.9979ZM26.4395 38.7536H25.7003C25.5419 38.7536 25.4099 38.7406 25.3043 38.7015C25.1987 38.6755 25.1195 38.6234 25.0667 38.5713C25.0139 38.5191 24.9743 38.441 24.9479 38.3628C24.9215 38.2846 24.9215 38.1934 24.9215 38.1023C24.9215 38.0241 24.9347 37.9459 24.9479 37.8678C24.9743 37.7896 25.0139 37.7245 25.0667 37.6593C25.1195 37.5942 25.1987 37.5551 25.3043 37.516C25.4099 37.4769 25.5419 37.4639 25.7003 37.4639H26.4395V38.7536Z" fill="white"/>
<path d="M33.4751 39.1835C33.3695 39.0924 33.2243 39.0142 33.0659 38.9751C33.1715 38.936 33.2507 38.8839 33.3431 38.8188C33.4223 38.7536 33.5015 38.6755 33.5543 38.5843L34.8215 36.565H33.7919C33.6863 36.565 33.5807 36.5911 33.5015 36.6432C33.4223 36.6953 33.3563 36.7734 33.3035 36.8646L32.3663 38.4149C32.3135 38.5061 32.2475 38.5582 32.1815 38.5973C32.1155 38.6364 32.0363 38.6494 31.9439 38.6494H31.5083V36.578H30.3071V41.6979H31.5083V39.5223H32.0495C32.1551 39.5223 32.2475 39.5353 32.3267 39.5744C32.3927 39.6135 32.4587 39.6786 32.5247 39.7828L33.3827 41.3852C33.4487 41.4894 33.5147 41.5676 33.5807 41.6327C33.6599 41.6848 33.7391 41.7109 33.8579 41.7109H34.9535L33.7919 39.6004C33.6863 39.418 33.5807 39.2747 33.4751 39.1835Z" fill="white"/>
<path d="M38.8474 37.0601C38.6758 36.9037 38.4646 36.7865 38.2006 36.7083C37.9366 36.6171 37.6198 36.578 37.2634 36.578H35.4286V41.6979H36.6298V39.9913H37.2634C37.6198 39.9913 37.9366 39.9522 38.2006 39.861C38.4646 39.7698 38.6758 39.6526 38.8474 39.5093C39.019 39.3529 39.151 39.1705 39.2302 38.9621C39.3094 38.7536 39.349 38.5191 39.349 38.2586C39.349 38.0241 39.3094 37.8026 39.2302 37.5942C39.151 37.3857 39.019 37.2034 38.8474 37.0601ZM37.9366 38.8709C37.8046 39.0142 37.567 39.0924 37.2634 39.0924H36.6298V37.4639H37.2634C37.4218 37.4639 37.5406 37.4769 37.6594 37.516C37.765 37.5551 37.8574 37.6072 37.9366 37.6724C38.0026 37.7375 38.0686 37.8287 38.095 37.9199C38.1346 38.0111 38.1478 38.1283 38.1478 38.2456C38.1478 38.5061 38.0686 38.7146 37.9366 38.8709Z" fill="white"/>
<path d="M44.3124 37.2685C44.0748 37.034 43.7976 36.8516 43.4676 36.7083C43.1376 36.578 42.768 36.4999 42.3588 36.4999C41.9496 36.4999 41.5932 36.565 41.25 36.6953C40.92 36.8256 40.6296 37.008 40.392 37.2424C40.1544 37.4769 39.9696 37.7505 39.8376 38.0762C39.7056 38.3889 39.6396 38.7406 39.6396 39.1054C39.6396 39.4702 39.7056 39.8219 39.8376 40.1346C39.9696 40.4472 40.1544 40.7338 40.392 40.9683C40.6296 41.2028 40.9068 41.3852 41.25 41.5285C41.58 41.6588 41.9496 41.7239 42.3588 41.7239C42.768 41.7239 43.1244 41.6588 43.4676 41.5285C43.7976 41.3983 44.088 41.2159 44.3124 40.9683C44.55 40.7338 44.7348 40.4603 44.8536 40.1346C44.9856 39.8219 45.0516 39.4702 45.0516 39.1054C45.0516 38.7406 44.9856 38.3889 44.8536 38.0762C44.7348 37.7766 44.55 37.503 44.3124 37.2685ZM43.7184 39.8219C43.6524 40.0304 43.56 40.1997 43.428 40.343C43.3092 40.4863 43.1508 40.5905 42.966 40.6687C42.7812 40.7469 42.5832 40.786 42.3456 40.786C42.108 40.786 41.91 40.7469 41.7252 40.6687C41.5404 40.5905 41.3952 40.4863 41.2632 40.343C41.1444 40.1997 41.0388 40.0304 40.9728 39.8219C40.9068 39.6135 40.8672 39.392 40.8672 39.1315C40.8672 38.8839 40.9068 38.6494 40.9728 38.441C41.0388 38.2325 41.1312 38.0632 41.2632 37.9199C41.382 37.7766 41.5404 37.6724 41.7252 37.5942C41.91 37.516 42.108 37.4769 42.3456 37.4769C42.57 37.4769 42.7812 37.516 42.966 37.5942C43.1508 37.6724 43.296 37.7766 43.428 37.9199C43.5468 38.0632 43.6524 38.2325 43.7184 38.441C43.7844 38.6494 43.824 38.8709 43.824 39.1315C43.824 39.392 43.7844 39.6135 43.7184 39.8219Z" fill="white"/>
<path d="M48.7872 39.0403C48.9456 38.9881 49.0776 38.923 49.1964 38.8448C49.302 38.7667 49.3944 38.6885 49.4736 38.5843C49.5528 38.4801 49.5924 38.3889 49.632 38.2846C49.6716 38.1804 49.6848 38.0632 49.6848 37.9459C49.6848 37.7375 49.6452 37.5421 49.5792 37.3727C49.5132 37.2034 49.3944 37.0601 49.236 36.9428C49.0776 36.8256 48.8664 36.7344 48.6156 36.6692C48.3648 36.6041 48.0612 36.565 47.7048 36.565H45.7908V41.6979H47.8632C48.18 41.6979 48.4572 41.6588 48.6948 41.5806C48.9324 41.5025 49.1436 41.3982 49.302 41.2549C49.4736 41.1116 49.5924 40.9553 49.6716 40.7599C49.7508 40.5775 49.8036 40.3691 49.8036 40.1476C49.8036 39.861 49.7244 39.6135 49.5528 39.4311C49.3812 39.2617 49.1172 39.1314 48.7872 39.0403ZM46.9656 37.4639H47.6652C47.7972 37.4639 47.916 37.4769 48.0216 37.49C48.114 37.516 48.2064 37.5421 48.2592 37.5942C48.3252 37.6463 48.3648 37.7114 48.4044 37.7896C48.4308 37.8678 48.4572 37.972 48.4572 38.0892C48.4572 38.2195 48.444 38.3107 48.4044 38.4019C48.3648 38.4801 48.312 38.5452 48.2328 38.5973C48.1536 38.6494 48.0612 38.6755 47.9556 38.7015C47.85 38.7146 47.7312 38.7276 47.5992 38.7276H46.9656V37.4639ZM48.5628 40.3691C48.5364 40.4472 48.4968 40.5254 48.444 40.5775C48.3912 40.6426 48.312 40.6948 48.2064 40.7338C48.1008 40.7729 47.9688 40.799 47.8104 40.799H46.9656V39.5223H47.8104C47.9688 39.5223 48.0876 39.5353 48.1932 39.5614C48.2988 39.5874 48.378 39.6265 48.4308 39.6786C48.4968 39.7307 48.5364 39.7959 48.5628 39.874C48.5892 39.9522 48.6024 40.0303 48.6024 40.1215C48.5892 40.2127 48.5892 40.2909 48.5628 40.3691Z" fill="white"/>
<path d="M50.5428 41.6979H53.8824V40.786H51.744V39.5614H53.3808V38.6885H51.744V37.49H53.8824V36.578H50.5428V41.6979Z" fill="white"/>
<path d="M55.4797 37.9329C55.4533 38.3237 55.4137 38.6755 55.3741 38.9621C55.3345 39.2487 55.2949 39.5092 55.2421 39.7177C55.1893 39.9261 55.1365 40.0955 55.0837 40.2388C55.0309 40.3821 54.9781 40.4863 54.9121 40.5645C54.8593 40.6426 54.7933 40.6948 54.7405 40.7469C54.6877 40.786 54.6217 40.812 54.5689 40.825C54.5161 40.8381 54.4633 40.8381 54.4105 40.8381H54.1069V41.5546C54.1069 41.6197 54.1465 41.6718 54.2389 41.7109C54.3313 41.75 54.4765 41.763 54.6877 41.763C54.8593 41.763 55.0177 41.75 55.1761 41.7109C55.3345 41.6718 55.4797 41.5937 55.6117 41.4894C55.7437 41.3852 55.8757 41.2289 55.9813 41.0335C56.0869 40.8381 56.1925 40.5775 56.2849 40.2648C56.3773 39.9522 56.4565 39.5614 56.5225 39.1054C56.5885 38.6494 56.6413 38.1023 56.6677 37.4769H57.8161V41.6979H59.0305V36.578H55.5325C55.5325 37.0861 55.5061 37.5421 55.4797 37.9329Z" fill="white"/>
<path d="M63.4656 39.0533C63.3072 38.923 63.1092 38.8188 62.8584 38.7406C62.6076 38.6625 62.304 38.6234 61.9476 38.6234H61.248V36.578H60.0468V41.6979H61.9476C62.2644 41.6979 62.5416 41.6588 62.7792 41.5806C63.03 41.5025 63.228 41.3852 63.3996 41.2419C63.5712 41.0986 63.7032 40.9293 63.7824 40.7208C63.8616 40.5124 63.9144 40.2909 63.9144 40.0434C63.9144 39.848 63.8748 39.6786 63.8088 39.4962C63.7428 39.3269 63.624 39.1836 63.4656 39.0533ZM62.7 40.4082C62.6736 40.4863 62.634 40.5515 62.5812 40.6166C62.5284 40.6817 62.4492 40.7208 62.3436 40.7599C62.238 40.799 62.106 40.812 61.9476 40.812H61.248V39.5353H61.9476C62.106 39.5353 62.238 39.5483 62.3436 39.5874C62.4492 39.6135 62.5284 39.6656 62.5812 39.7177C62.634 39.7698 62.6736 39.848 62.7 39.9261C62.7264 40.0043 62.7264 40.0955 62.7264 40.1867C62.7264 40.2518 62.7132 40.33 62.7 40.4082Z" fill="white"/>
<path d="M67.8347 38.7146H65.7227V36.578H64.5215V41.6979H65.7227V39.5353H67.8347V41.6979H69.0491V36.578H67.8347V38.7146Z" fill="white"/>
<path d="M77.0881 36.578C76.7713 36.578 76.4941 36.6171 76.2565 36.6953C76.0057 36.7734 75.8077 36.8777 75.6361 37.021C75.4645 37.1643 75.3325 37.3206 75.2533 37.503C75.1609 37.6854 75.1213 37.8938 75.1213 38.1153C75.1213 38.2716 75.1477 38.4149 75.1873 38.5452C75.2269 38.6755 75.2929 38.8058 75.3853 38.923C75.4777 39.0403 75.5833 39.1314 75.7153 39.2226C75.8473 39.3138 76.0057 39.379 76.1905 39.4311C76.0585 39.4832 75.9529 39.5483 75.8473 39.6395C75.7549 39.7177 75.6625 39.8219 75.5833 39.9522L74.6329 41.5025L72.6925 36.565H71.4517L69.4453 41.6979H70.3825C70.4881 41.6979 70.5673 41.6718 70.6333 41.6197C70.6993 41.5676 70.7521 41.5025 70.7785 41.4373L71.0821 40.5384H73.0621L73.3657 41.4373C73.4053 41.5155 73.4449 41.5676 73.5109 41.6197C73.5769 41.6718 73.6561 41.6979 73.7617 41.6979H74.5009H74.6989H75.4249C75.5965 41.6979 75.7417 41.6588 75.8737 41.5937C75.9925 41.5285 76.0981 41.4243 76.1641 41.3071L76.8901 40.0043C76.9693 39.861 77.0485 39.7698 77.1409 39.7307C77.2333 39.6786 77.3389 39.6525 77.4445 39.6525H77.8141V41.6979H79.0153V36.578H77.0881ZM71.3593 39.7437L71.8345 38.3498C71.8741 38.2586 71.9137 38.1544 71.9533 38.0371C71.9929 37.9199 72.0325 37.7766 72.0721 37.6333C72.1117 37.7766 72.1513 37.9068 72.1909 38.0241C72.2305 38.1413 72.2701 38.2456 72.3097 38.3368L72.7849 39.7437H71.3593ZM77.8141 38.7536H77.0749C76.9165 38.7536 76.7845 38.7406 76.6789 38.7015C76.5733 38.6755 76.4941 38.6234 76.4413 38.5713C76.3885 38.5191 76.3489 38.441 76.3225 38.3628C76.2961 38.2846 76.2961 38.1935 76.2961 38.1023C76.2961 38.0241 76.3093 37.9459 76.3225 37.8678C76.3357 37.7896 76.3885 37.7245 76.4413 37.6593C76.4941 37.5942 76.5733 37.5551 76.6789 37.516C76.7845 37.4769 76.9165 37.4639 77.0749 37.4639H77.8141V38.7536Z" fill="white"/>
<path d="M69.6035 34.663H76.9295H78.7247L59.4527 28.2794C59.2019 27.5108 58.2779 24.6708 57.9347 22.873C57.5387 20.7886 57.0107 18.7041 56.4827 18.4436C55.9547 18.183 56.7467 18.0528 56.4827 17.5317C56.2187 17.0106 55.9547 16.75 55.6907 15.5775C55.4267 14.405 55.4267 12.1903 55.6907 11.2784C55.9547 10.3665 56.6147 10.2362 56.7467 8.15177C56.8787 6.06735 56.0867 5.28569 55.1627 4.76459C54.2387 4.24348 54.2387 3.46183 53.7107 3.20127C53.1827 2.94072 53.1827 3.72238 52.5227 3.20127C51.8627 2.68017 52.5227 2.41962 51.9947 2.41962C51.4667 2.41962 51.0707 2.41962 50.6747 2.02879C50.2787 1.63796 48.4307 1.11686 47.6387 0.986579C46.8467 0.856303 40.9067 1.24713 40.3787 1.24713C39.8507 1.24713 37.8707 1.24713 37.6067 1.63796C37.3427 2.02879 37.4747 2.54989 36.6827 2.15906C36.6431 2.13301 36.5903 2.11998 36.5243 2.09393C36.7883 1.52071 36.7883 1.22108 36.6827 1.11686C36.3131 0.752082 35.8247 1.22108 35.5607 0.960524C35.2967 0.699971 33.0791 -0.863343 31.5347 0.726027C29.0531 3.29247 31.2047 4.4389 31.2707 5.52019C31.3235 6.58846 31.0067 6.73176 31.4027 7.12259C31.6271 7.34406 32.3663 7.05745 33.2375 6.38001C33.4091 6.57543 33.5543 6.7969 33.6467 7.07048C34.0163 8.19085 34.4123 7.25286 34.5971 7.18773C34.6763 7.16167 34.9667 7.50039 35.4947 7.63066C36.0227 7.76094 36.6167 8.06058 36.8807 6.74479C37.1447 5.429 37.4747 6.44515 37.2107 7.37011C36.9467 8.29507 35.8907 8.67288 35.7587 9.32426C35.6267 9.97564 35.6267 10.2362 34.9667 11.1481C34.3067 12.0601 34.4387 12.5812 33.9107 12.8417C33.3827 13.1023 32.7491 12.7635 32.3267 12.972C32.0099 13.1283 31.7459 13.428 31.5611 13.6755L29.2775 12.4379C29.5151 11.6171 30.1223 11.2654 30.9803 11.1351C30.0827 10.8485 28.8287 11.3305 28.4591 12.0861L28.1027 12.7896L27.8915 13.5713C27.8651 13.6625 27.7859 13.7276 27.6803 13.7276C27.5483 13.7406 27.4295 13.8058 27.3767 13.936L27.2579 14.1836C27.2183 14.2617 27.2579 14.3659 27.3371 14.405L28.1423 14.7959C28.2215 14.8349 28.3271 14.7959 28.3667 14.7177L28.4855 14.4702C28.5383 14.3529 28.5383 14.2357 28.4723 14.1314C28.4195 14.0403 28.4459 13.936 28.5251 13.8709L29.1323 13.3758L34.8611 16.6067C34.6895 16.8542 34.5707 17.0236 34.5707 17.0236C34.5707 17.0236 34.7027 17.1929 34.8875 17.4274C34.6103 17.6489 34.2539 17.8964 33.9107 18.0658C33.1187 18.4566 32.1947 17.8052 31.6667 17.8052C31.4555 17.8052 31.2839 17.9876 31.1255 18.1961V17.1539H31.2707V17.0236H30.8351V17.1539H30.9671V18.4566C30.9011 18.5869 30.8483 18.7041 30.8087 18.7953L29.6867 18.4306L26.9147 17.5186L23.3375 16.3461L22.7567 16.8021L17.2655 21.1664L16.4339 21.8308L0.290314 34.663H4.03911H5.33271H68.7587H69.6035ZM8.22351 32.3571L13.0943 28.4879L15.9719 32.3571H8.22351ZM16.6715 31.7578L16.1303 31.0413L13.8203 27.9147L16.6715 25.6479V31.7578ZM18.5195 32.3571V27.1982L21.6083 32.3571H18.5195ZM21.9647 30.898L18.5195 25.1398V24.1627L18.8891 23.8631L21.9647 21.4269V30.898ZM23.8127 24.0976L24.9347 25.9866L25.8719 27.5499L25.3043 28.4879L23.7995 30.9892V24.0976H23.8127ZM24.2219 32.3571L25.9247 29.5171L26.4923 28.5791L27.0599 29.5171L28.7627 32.3571H24.2219ZM29.1191 30.924L27.6671 28.5009L27.0995 27.5629L27.9839 26.0778L28.9475 24.4754L29.1191 24.1888V30.924ZM29.1191 22.1304L28.9475 22.417L28.3271 23.4462L27.9839 24.0324L26.4791 26.5468L24.9347 23.9543L23.8127 22.0653V19.9808L23.9711 19.8506L24.9347 20.1763L28.1291 21.2315L29.1059 21.5572V22.1304H29.1191ZM33.7787 14.874C34.0691 14.4702 34.5443 13.923 34.9667 14.0142C35.6267 14.1445 35.7323 14.861 36.5507 13.2325C37.2107 11.9298 37.6067 11.9298 38.1347 10.627C38.6627 9.32426 38.7947 8.67288 38.7947 8.67288C38.7947 8.67288 39.4547 10.7573 38.2667 12.3206C37.0787 13.8839 36.9467 14.9261 36.1547 15.317C35.9303 15.4212 35.7059 15.6036 35.5079 15.812L33.7787 14.874ZM30.9671 22.1565L31.3763 22.2998L35.1383 23.5504L35.3627 23.6286L35.1383 24.0064L33.5147 26.7292L31.8251 23.9152L31.5479 23.4592L30.9539 22.4691V22.1565H30.9671ZM30.9671 24.5014L31.8383 25.9475L32.9075 27.7453L32.4719 28.4749L30.9671 30.9892V24.5014ZM31.3631 32.3571L33.0923 29.478L33.5279 28.7615L33.9635 29.478L35.6927 32.3571H31.3631ZM36.0095 30.8719L34.5575 28.4488L34.1219 27.7323L35.1383 26.0387L36.0095 24.5926V30.8719ZM39.1247 28.4879L39.2435 28.6963L37.8575 31.0152V26.3774L39.1247 28.4879ZM37.9367 24.4623L40.4315 25.2831L41.1575 25.5176L39.9959 27.4587L39.8771 27.6671L39.7583 27.4587L37.9367 24.4623ZM38.2799 32.3571L39.8639 29.7125L41.4479 32.3571H38.2799ZM41.7911 30.898L40.4711 28.6963L40.5899 28.4879L41.7911 26.4947V30.898ZM43.0187 22.8339L42.2663 22.5864L42.0947 22.5343L42.0683 22.5212L40.7219 22.0783L38.0423 21.1924L37.0127 20.8537L36.9863 20.8407L36.0623 20.541L34.6895 20.0851L33.8447 19.8115L33.6995 19.7594C33.7259 19.7594 33.7523 19.7594 33.7655 19.7464C34.2671 19.6421 35.2043 18.7432 35.6399 18.3003C35.8643 18.5348 36.0491 18.7041 36.1415 18.7041C36.4055 18.7041 38.7815 16.75 39.8375 14.9261C40.8935 13.1023 41.1575 12.8417 41.2895 11.539C41.4215 10.2362 41.1575 9.71509 42.0815 9.84536C43.0055 9.97564 45.1175 10.1059 46.0415 9.97564C46.0943 9.96261 46.1471 9.96261 46.1735 9.94958C45.8435 10.0277 44.7347 10.3144 44.3783 11.0439C43.7447 12.2815 41.9495 13.1023 42.0815 14.2748C42.2135 15.4472 42.3455 18.3133 42.6095 19.095C42.8075 19.6682 43.4147 21.922 43.7315 23.0814L43.0847 22.873L43.0187 22.8339ZM45.9623 27.12L45.7775 27.4326L45.4739 27.9538L45.1571 27.4326L44.7347 26.7161L45.4475 26.9506L45.9623 27.12ZM43.6391 26.9376L44.5499 28.4488L44.8535 28.9699L43.6391 31.0022V26.9376ZM44.0483 32.3571L45.4739 29.9861L46.8995 32.3571H44.0483ZM47.2031 30.8329L46.0811 28.9569L46.3847 28.4358L46.9787 27.4457L47.1899 27.5238V30.8329H47.2031ZM49.4999 32.3571L51.2027 29.5171L52.9055 32.3571H49.4999ZM49.0511 31.0543V28.1361L50.5031 28.6182L49.0511 31.0543ZM53.2355 30.8719L52.2191 29.1783L53.2355 29.5171V30.8719ZM53.1827 26.2081L52.1531 25.8693L49.7507 25.0746L49.0511 24.8402L48.2195 24.5666L48.1139 24.5275L47.4671 24.306C47.2163 23.368 46.8863 22.0392 46.9787 21.5702C47.1107 20.7886 47.6387 20.528 46.9787 20.0069C46.3187 19.4858 46.4507 19.095 46.5827 18.5739C46.7147 18.0528 45.9227 17.1408 46.4507 15.7078C46.9787 14.2748 48.3911 13.428 48.9191 13.0371C49.4471 12.6463 50.6747 11.6692 50.6747 11.6692C50.8067 12.1903 50.1467 15.1867 51.2027 17.1408C52.2587 19.095 53.0111 19.9027 53.2751 21.0752C53.5391 22.2477 54.8987 24.9574 55.0307 25.7391C55.0835 26.0908 55.1759 26.5207 55.2551 26.8855L55.0835 26.8334L54.1595 26.5207L53.1827 26.2081ZM55.0835 30.1294L55.5191 30.2727L55.0835 31.0152V30.1294ZM55.5059 32.3571L56.5487 30.6114L61.8155 32.3571H55.5059Z" fill="white"/>
</svg>
