<svg xmlns="http://www.w3.org/2000/svg" width="100.593" height="32.25" viewBox="0 0 100.593 32.25">
  <defs>
    <style>
      .cls-1 {
        fill: #363636;
        fill-rule: evenodd;
      }
    </style>
  </defs>
  <path id="logo" class="cls-1" d="M362.55,25.9a2.254,2.254,0,1,0-2.25-2.254,2.253,2.253,0,0,0,2.25,2.254h0Zm27.63,27.71a2.255,2.255,0,1,0-2.25-2.255,2.252,2.252,0,0,0,2.25,2.255h0Zm-9.225,0a2.255,2.255,0,1,0-2.25-2.255,2.252,2.252,0,0,0,2.25,2.255h0Zm-9.18,0a2.255,2.255,0,1,0-2.25-2.255,2.253,2.253,0,0,0,2.25,2.255h0Zm-9.225,0a2.255,2.255,0,1,0-2.25-2.255,2.253,2.253,0,0,0,2.25,2.255h0Zm27.63-9.222a2.254,2.254,0,1,0-2.25-2.255,2.252,2.252,0,0,0,2.25,2.255h0Zm-9.225,0a2.254,2.254,0,1,0-2.25-2.255,2.252,2.252,0,0,0,2.25,2.255h0Zm-9.18,0a2.254,2.254,0,1,0-2.25-2.255,2.252,2.252,0,0,0,2.25,2.255h0Zm-9.225,0a2.254,2.254,0,1,0-2.25-2.255,2.252,2.252,0,0,0,2.25,2.255h0Zm27.63-9.2a2.255,2.255,0,1,0-2.25-2.255,2.252,2.252,0,0,0,2.25,2.255h0Zm-9.225,0a2.255,2.255,0,1,0-2.25-2.255,2.252,2.252,0,0,0,2.25,2.255h0Zm-9.18,0a2.255,2.255,0,1,0-2.25-2.255,2.253,2.253,0,0,0,2.25,2.255h0Zm-9.225,0a2.255,2.255,0,1,0-2.25-2.255,2.253,2.253,0,0,0,2.25,2.255h0Zm27.63-9.29a2.254,2.254,0,1,0-2.25-2.254,2.252,2.252,0,0,0,2.25,2.254h0Zm-9.225,0a2.254,2.254,0,1,0-2.25-2.254,2.252,2.252,0,0,0,2.25,2.254h0Zm-9.18,0a2.254,2.254,0,1,0-2.25-2.254A2.253,2.253,0,0,0,371.775,25.9Zm37.985,2.043v5.872h0.852V36.4h-1.106l-0.114-1.415h-6L403.278,36.4h-1.106V33.814h0.915l1.195-5.872h5.478Zm-5.313,5.872h4.017V29.076h-3.14ZM418,27.942v1.172h-5v1.694h4.5v1.16H413V33.8h5.186v1.185h-6.483V27.942H418Zm8.886,0v7.044h-1.3V29.114h-3.14l-0.775,4.128a1.929,1.929,0,0,1-2.072,1.745h-0.712v-1.21h0.623a0.812,0.812,0,0,0,.9-0.7l0.966-5.134h5.5Zm5.122,7.222a3.7,3.7,0,1,1,3.928-3.694A3.7,3.7,0,0,1,432.005,35.164Zm0-1.121a2.574,2.574,0,1,0-2.631-2.573A2.477,2.477,0,0,0,432.005,34.043Zm9.623-6.1a1.894,1.894,0,0,1,2.148,1.821,1.453,1.453,0,0,1-.6,1.287,1.829,1.829,0,0,1,1.094,1.77,2.2,2.2,0,0,1-2.327,2.165h-4.8V27.942h4.487Zm-3.191,2.8h3.305a0.768,0.768,0,0,0,.776-0.8,0.808,0.808,0,0,0-.967-0.828h-3.114v1.631Zm0,3.07h3.457a0.985,0.985,0,0,0,1.119-.981,0.912,0.912,0,0,0-.991-0.956h-3.585v1.937Zm10.716,1.35a3.7,3.7,0,1,1,3.928-3.694A3.7,3.7,0,0,1,449.153,35.164Zm0-1.121a2.574,2.574,0,1,0-2.631-2.573A2.477,2.477,0,0,0,449.153,34.043Zm11.427-6.1v1.172h-5v1.694h4.5v1.16h-4.5V33.8h5.186v1.185h-6.483V27.942h6.292Zm-54,12.107a2.691,2.691,0,0,1,2.86,2.725,2.661,2.661,0,0,1-2.86,2.688h-2.834v1.631h-1.3V40.05h4.131Zm-2.834,4.229h2.783a1.466,1.466,0,0,0,1.627-1.5,1.488,1.488,0,0,0-1.627-1.541h-2.783v3.044Zm13.105-4.229v1.172h-5v1.694h4.5v1.159h-4.5v1.834h5.186v1.185h-6.482V40.05h6.292Zm2.707,0v5.872h3.089V40.05h1.271v5.872h3.076V40.05h1.272v7.044h-9.979V40.05h1.271Zm16.36,0v1.172h-5v1.694h4.5v1.159h-4.5v1.834H436.1v1.185h-6.483V40.05h6.292Zm2.733,0v2.816h4.512V40.05h1.284v7.044h-1.284V44.024h-4.512v3.069h-1.3V40.05h1.3Zm8.44,0v5.325l4.691-5.325h1.284v7.044h-1.284V41.8l-4.678,5.3h-1.3V40.05h1.283Zm13.614,0v1.172h-5v1.694h4.5v1.159h-4.5v1.834h5.186v1.185h-6.483V40.05H460.7Z" transform="translate(-360.313 -21.375)"/>
</svg>
