<svg width="90" height="90" viewBox="0 0 90 90" fill="none" xmlns="http://www.w3.org/2000/svg">
<g clip-path="url(#clip0)">
<rect width="90" height="90" fill="#AD66D5"/>
<path d="M39.7031 78.6179L40.2773 75.5828H41.1533L40.207 79.8484H39.3223L38.6279 76.9949L37.9336 79.8484H37.0488L36.1025 75.5828H36.9785L37.5557 78.6121L38.2588 75.5828H39.0029L39.7031 78.6179ZM46.9102 78.9695H45.3691L45.0762 79.8484H44.1416L45.7295 75.5828H46.5439L48.1406 79.8484H47.2061L46.9102 78.9695ZM45.6064 78.2576H46.6729L46.1367 76.6609L45.6064 78.2576ZM52.5703 77.5046L53.458 75.5828H54.4189L53.0186 78.3015V79.8484H52.125V78.3015L50.7246 75.5828H51.6885L52.5703 77.5046Z" fill="black"/>
<path d="M5.48611 22.4574L26.7733 43.6961C20.4224 50.0144 7.41489 62.9479 6.19176 64.1354C4.96863 65.323 5.01567 67.3327 5.83894 68.4745C9.91604 72.4711 18.376 80.7382 19.5992 81.8344C20.6576 82.783 22.5394 82.862 23.8331 81.8344L45.3555 61.5092C51.6671 67.5991 64.6668 80.1216 66.1722 81.4918C67.6776 82.862 69.9357 82.2911 70.8766 81.8344C74.6008 78.2565 82.4257 70.7354 83.9311 69.2738C85.4365 67.8122 85.0288 65.5437 84.6368 64.5922L63.3496 43.6961C69.6613 37.5681 82.6609 24.901 84.1663 23.2567C85.6717 21.6124 84.7936 19.4505 84.1663 18.575C80.4029 14.883 72.4525 7.15639 70.7589 5.78615C69.0654 4.41591 66.9955 5.21522 66.1722 5.78615L45.1202 25.7688C39.5142 20.2878 27.7142 8.755 25.362 6.47127C23.0098 4.18754 20.3048 5.06297 19.2463 5.78615C15.2476 9.5543 6.89741 17.456 5.48611 18.9176C4.8981 19.8311 4.78049 21.4297 5.48611 22.4574Z" fill="black"/>
<path d="M43.1052 34.4601L21.5828 13.9065L14.1735 21.2144C20.6027 27.4947 33.8141 40.3978 35.2254 41.768C36.6367 43.1382 35.8135 45.1555 35.2254 45.9929L14.1735 66.4323L21.9356 74.0828C28.0121 68.1451 40.6825 55.8358 42.7524 54.1001C44.8223 52.3645 46.7511 53.0725 47.4567 53.6434L68.5087 74.0828L75.918 66.4323C69.4888 60.152 56.3244 47.2718 55.1013 45.9929C53.8782 44.714 54.5917 42.6434 55.1013 41.768L76.0357 21.2144L68.2735 13.9065C62.0402 19.9203 49.1503 32.359 47.4567 34.0033C45.7632 35.6476 43.8501 34.9929 43.1052 34.4601Z" fill="#AD66D5"/>
<path d="M47.5276 40.8789H42.8233V41.564H42V45.6747H42.8233V46.5882L47.5276 46.474V45.6747H48.2333V41.564H47.5276V40.8789Z" fill="black"/>
<path d="M44.2346 42.0203H43.2937V42.9338H44.2346V42.0203Z" fill="#AD66D5"/>
<path d="M46.1163 42.0203H47.0572V42.9338H46.1163V42.0203Z" fill="#AD66D5"/>
<path d="M46.1163 45.2175H47.0572V44.304H46.1163V45.2175Z" fill="#AD66D5"/>
<path d="M43.2937 44.304V45.2175H44.2346V44.304H43.2937Z" fill="#AD66D5"/>
<path d="M67.3854 62.6079C67.6349 62.5837 67.902 62.6339 68.1867 62.7588C68.47 62.885 68.7392 63.0691 68.9942 63.3111C69.2619 63.5652 69.4401 63.8447 69.5288 64.1495C69.6147 64.4544 69.6038 64.7671 69.4963 65.0875C69.3873 65.4066 69.1869 65.713 68.8953 66.0067L68.689 66.2106C68.3862 66.5099 68.0726 66.7197 67.7483 66.8398C67.4212 66.96 67.1016 66.985 66.7894 66.9148C66.4744 66.8446 66.1851 66.6845 65.9216 66.4344C65.5547 66.0862 65.3539 65.7288 65.3193 65.3623C65.2834 64.9971 65.4102 64.6344 65.6997 64.274L66.3203 64.8629C66.175 65.0614 66.1109 65.2469 66.1281 65.4193C66.1438 65.5903 66.2367 65.7565 66.4067 65.9179C66.6235 66.1236 66.8684 66.2013 67.1415 66.1509C67.4146 66.1006 67.7095 65.9203 68.0262 65.61L68.22 65.4184C68.5381 65.104 68.7168 64.808 68.7561 64.5304C68.7954 64.2528 68.696 64.001 68.458 63.7752C68.2186 63.548 67.9979 63.4354 67.7958 63.4374L67.2728 63.9544L67.853 64.5049L67.3925 64.9601L66.1748 63.8045L67.3854 62.6079ZM62.4265 59.3108L62.9344 59.7928L64.045 58.6951L64.6825 59.3001L61.6487 62.2986L60.499 61.2076C60.1335 60.8607 59.9315 60.5142 59.8929 60.1681C59.8543 59.822 59.9809 59.5048 60.2726 59.2164C60.4796 59.0119 60.6985 58.8846 60.9295 58.8347C61.1577 58.7849 61.4056 58.8075 61.6732 58.9026L62.2435 57.042L62.2727 57.0131L62.957 57.6625L62.4265 59.3108ZM62.4281 60.2932L61.9138 59.8052C61.7537 59.6532 61.5902 59.5747 61.4232 59.5696C61.2548 59.5659 61.1004 59.6334 60.9601 59.772C60.817 59.9135 60.7463 60.0643 60.7479 60.2247C60.7481 60.3836 60.834 60.5445 61.0054 60.7072L61.5175 61.1932L62.4281 60.2932ZM56.1588 53.7582L57.3829 54.9199L58.1955 54.1167L56.759 52.7534L57.2611 52.2571L59.3352 54.2254L56.3014 57.2239L54.2315 55.2597L54.7379 54.7592L56.1702 56.1185L56.8932 55.4038L55.6692 54.2422L56.1588 53.7582ZM51.9474 48.4254L53.0652 49.4862L53.9028 49.07L54.5807 49.7133L50.3951 51.6188L49.8043 51.0582L51.68 46.9605L52.3579 47.6038L51.9474 48.4254ZM52.3868 49.8233L51.6132 49.0892L50.8665 50.5806L52.3868 49.8233Z" fill="black"/>
<path d="M26.5505 64.5485C26.5742 64.7902 26.5209 65.0487 26.3905 65.3239C26.2587 65.5977 26.0672 65.8576 25.8159 66.1035C25.5522 66.3618 25.2627 66.5332 24.9474 66.6178C24.6322 66.6996 24.3094 66.6878 23.9792 66.5822C23.6503 66.4753 23.335 66.28 23.0332 65.9962L22.8238 65.7956C22.5163 65.501 22.3014 65.1965 22.1791 64.8819C22.0567 64.5646 22.0326 64.2549 22.1067 63.9528C22.1808 63.6481 22.3477 63.3686 22.6073 63.1145C22.9688 62.7606 23.3388 62.5677 23.7174 62.5357C24.0947 62.5025 24.4686 62.6268 24.8391 62.9088L24.2278 63.5073C24.0236 63.3657 23.8324 63.3029 23.6543 63.3188C23.4776 63.3333 23.3055 63.4225 23.1381 63.5865C22.9245 63.7956 22.843 64.0324 22.8936 64.2971C22.9441 64.5618 23.1287 64.8482 23.4475 65.1563L23.6442 65.3448C23.9672 65.6542 24.2718 65.8286 24.5583 65.8678C24.8447 65.907 25.1051 65.8118 25.3396 65.5823C25.5755 65.3514 25.6929 65.1381 25.6918 64.9424L25.1609 64.4337L24.5893 64.9932L24.1218 64.5453L25.3214 63.3709L26.5505 64.5485ZM29.9809 59.7599L29.4806 60.2498L30.6081 61.3301L29.9801 61.9449L26.9 58.9939L28.0326 57.8851C28.3927 57.5326 28.7515 57.3384 29.1091 57.3025C29.4666 57.2666 29.7935 57.3905 30.0897 57.6743C30.2998 57.8756 30.43 58.0882 30.4803 58.3122C30.5306 58.5334 30.506 58.7733 30.4063 59.032L32.3245 59.5924L32.3541 59.6208L31.68 60.2807L29.9809 59.7599ZM28.9665 59.7573L29.4732 59.2613C29.6309 59.1069 29.7128 58.9488 29.7189 58.7871C29.7237 58.624 29.6548 58.4742 29.5124 58.3378C29.3671 58.1986 29.2117 58.1294 29.0462 58.1303C28.882 58.1299 28.7155 58.2123 28.5466 58.3776L28.0421 58.8715L28.9665 59.7573ZM35.747 53.7134L34.5411 54.894L35.3662 55.6844L36.7813 54.299L37.2912 54.7874L35.2479 56.7877L32.1679 53.8367L34.2069 51.8405L34.721 52.333L33.31 53.7143L34.044 54.4177L35.2499 53.2371L35.747 53.7134ZM41.2754 49.6575L40.1742 50.7356L40.5995 51.5486L39.9317 52.2023L37.9863 48.1405L38.5683 47.5707L42.7893 49.4048L42.1215 50.0586L41.2754 49.6575ZM39.8298 50.077L40.5918 49.331L39.0558 48.6015L39.8298 50.077Z" fill="black"/>
<path d="M67.0771 25.4762C66.8272 25.4916 66.5624 25.4319 66.2827 25.2968C66.0044 25.1605 65.7422 24.9667 65.4963 24.7155C65.238 24.4518 65.07 24.1658 64.9923 23.8576C64.9174 23.5495 64.9393 23.237 65.0581 22.9202C65.1782 22.6048 65.389 22.3052 65.6906 22.0216L65.9037 21.8249C66.2166 21.5361 66.537 21.3374 66.865 21.2286C67.1957 21.1199 67.5157 21.1062 67.8248 21.1876C68.1367 21.2689 68.4198 21.4394 68.6739 21.699C69.0278 22.0604 69.2155 22.4252 69.2371 22.7932C69.26 23.1599 69.1206 23.5184 68.8188 23.8687L68.2203 23.2574C68.3724 23.0639 68.4429 22.8806 68.4318 22.7075C68.4222 22.5358 68.3353 22.3662 68.1714 22.1987C67.9623 21.9852 67.7206 21.8988 67.4462 21.9395C67.1719 21.9802 66.8711 22.1502 66.5439 22.4495L66.3437 22.6343C66.015 22.9376 65.8262 23.2275 65.7771 23.5039C65.7281 23.7803 65.8183 24.0357 66.0479 24.2702C66.2788 24.506 66.4952 24.6265 66.6969 24.6316L67.2372 24.1329L66.6777 23.5614L67.1535 23.1222L68.3279 24.3217L67.0771 25.4762ZM61.5183 28.3393L61.0284 27.839L59.881 28.898L59.2661 28.27L62.4006 25.3769L63.5095 26.5094C63.862 26.8695 64.0514 27.2234 64.0777 27.5711C64.1039 27.9188 63.9663 28.2318 63.6649 28.5099C63.4511 28.7073 63.228 28.8269 62.9957 28.8686C62.7661 28.9105 62.5195 28.879 62.2558 28.7744L61.6205 30.6161L61.5904 30.6439L60.9304 29.9698L61.5183 28.3393ZM61.5516 27.3561L62.0476 27.8627C62.202 28.0204 62.3625 28.1048 62.529 28.1158C62.697 28.1255 62.8534 28.0634 62.9984 27.9296C63.1462 27.7932 63.2222 27.6447 63.2262 27.4842C63.2316 27.3251 63.1517 27.1611 62.9864 26.9923L62.4924 26.4878L61.5516 27.3561ZM57.436 33.7609L56.2554 32.5552L55.4158 33.3301L56.8013 34.7452L56.2825 35.2241L54.2821 33.181L57.4166 30.2879L59.413 32.3268L58.8898 32.8096L57.5084 31.3987L56.7613 32.0882L57.9419 33.294L57.436 33.7609ZM51.2372 38.8167L50.1591 37.7156L49.3083 38.1024L48.6544 37.4346L52.8999 35.6761L53.4697 36.258L51.4522 40.292L50.7984 39.6242L51.2372 38.8167ZM50.8483 37.4023L51.5943 38.1643L52.3925 36.6983L50.8483 37.4023Z" fill="black"/>
<path d="M22.9337 23.9506C22.6841 23.9737 22.4172 23.9221 22.1331 23.7959C21.8504 23.6684 21.5822 23.483 21.3283 23.2398C21.0618 22.9844 20.8849 22.7041 20.7976 22.3988C20.7132 22.0935 20.7256 21.7809 20.8347 21.461C20.9452 21.1425 21.147 20.837 21.44 20.5446L21.6473 20.3417C21.9515 20.0439 22.2661 19.8356 22.591 19.717C22.9186 19.5984 23.2384 19.5749 23.5502 19.6466C23.8649 19.7183 24.1534 19.8798 24.4157 20.1311C24.781 20.4811 24.98 20.8394 25.0129 21.2061C25.0471 21.5715 24.9186 21.9336 24.6273 22.2925L24.0096 21.7007C24.1558 21.5029 24.2208 21.3178 24.2044 21.1453C24.1894 20.9741 24.0974 20.8075 23.9281 20.6454C23.7123 20.4386 23.4678 20.3598 23.1945 20.4088C22.9211 20.4578 22.6254 20.6368 22.3072 20.9456L22.1125 21.1362C21.7929 21.4491 21.6128 21.7442 21.5722 22.0216C21.5316 22.299 21.6297 22.5513 21.8667 22.7783C22.105 23.0066 22.3252 23.1202 22.5272 23.1192L23.0527 22.6047L22.4752 22.0514L22.9378 21.5985L24.15 22.7598L22.9337 23.9506ZM27.8768 27.2713L27.3712 26.7869L26.2554 27.8793L25.6208 27.2713L28.6689 24.2872L29.8133 25.3837C30.1772 25.7323 30.3776 26.0798 30.4145 26.4261C30.4515 26.7724 30.3234 27.089 30.0303 27.3759C29.8223 27.5795 29.6028 27.7057 29.3715 27.7545C29.1431 27.8033 28.8953 27.7795 28.6282 27.6831L28.049 29.541L28.0197 29.5697L27.3385 28.9171L27.8768 27.2713ZM27.8799 26.2889L28.3919 26.7794C28.5512 26.9321 28.7144 27.0114 28.8814 27.0173C29.0498 27.0218 29.2045 26.9551 29.3454 26.8171C29.4892 26.6763 29.5606 26.5258 29.5598 26.3655C29.5603 26.2065 29.4752 26.0452 29.3046 25.8817L28.7948 25.3933L27.8799 26.2889ZM34.118 32.8536L32.8995 31.6862L32.0831 32.4855L33.5131 33.8556L33.0086 34.3496L30.9439 32.3714L33.992 29.3873L36.0524 31.3614L35.5437 31.8595L34.1179 30.4934L33.3915 31.2046L34.61 32.372L34.118 32.8536ZM38.304 38.2065L37.1912 37.1404L36.3517 37.5526L35.6768 36.906L39.8715 35.0205L40.4596 35.5839L38.5644 39.6726L37.8896 39.0261L38.304 38.2065ZM37.8713 36.8065L38.6413 37.5443L39.3951 36.0564L37.8713 36.8065Z" fill="black"/>
</g>
<defs>
<clipPath id="clip0">
<rect width="90" height="90" fill="white"/>
</clipPath>
</defs>
</svg>
