<svg id="Logo" xmlns="http://www.w3.org/2000/svg" width="115.5" height="29.294" viewBox="0 0 115.5 29.294">
  <path id="Path_1" data-name="Path 1" d="M838,234.155a1.535,1.535,0,0,1,1.547-1.547h3.938c4.42,0,7.474,3.034,7.474,6.991v.04c0,3.958-3.054,7.032-7.474,7.032h-3.938A1.535,1.535,0,0,1,838,245.124Zm5.485,9.724a4.007,4.007,0,0,0,4.239-4.2v-.04a4.039,4.039,0,0,0-4.239-4.239H841.09v8.478Z" transform="translate(-767.718 -225.321)" fill="#231f20"/>
  <path id="Path_2" data-name="Path 2" d="M941.683,233.416a1.535,1.535,0,0,1,1.547-1.547h.321a1.916,1.916,0,0,1,1.607.9l5.967,7.835v-7.253a1.527,1.527,0,0,1,3.054,0v11.19a1.535,1.535,0,0,1-1.547,1.547h-.1a1.916,1.916,0,0,1-1.607-.9l-6.188-8.117v7.534a1.527,1.527,0,0,1-3.054,0Z" transform="translate(-855.354 -224.663)" fill="#231f20"/>
  <path id="Path_3" data-name="Path 3" d="M1040.36,243.476l4.9-11.07a1.912,1.912,0,0,1,1.808-1.225h.181a1.885,1.885,0,0,1,1.788,1.225l4.9,11.07a1.507,1.507,0,0,1,.161.623,1.466,1.466,0,0,1-1.467,1.487,1.575,1.575,0,0,1-1.487-1.065l-.944-2.21h-6.188l-.985,2.31a1.519,1.519,0,0,1-1.426.964,1.424,1.424,0,0,1-1.426-1.447A1.64,1.64,0,0,1,1040.36,243.476Zm8.7-3.9-1.949-4.641-1.949,4.641Z" transform="translate(-938.602 -224.115)" fill="#231f20"/>
  <path id="Path_4" data-name="Path 4" d="M386.875,234.8H400.17s5.4-.357,5.4,4.684v3.6l-5.1,0-.005-3.2h-3.1l-5.392,0h-.559c-2.076,0-3.872,0-4.544,0A2.561,2.561,0,1,1,386.875,234.8Z" transform="translate(-384.025 -227.168)"/>
  <path id="Path_5" data-name="Path 5" d="M450.553,280.781H437.259s-5.4.357-5.4-4.684c0,0,0-2.17,0-3.595h5.1l.005,3.189h3.1l5.392,0h.559c2.076,0,3.872,0,4.544,0A2.561,2.561,0,1,1,450.553,280.781Z" transform="translate(-424.452 -259.04)"/>
  <path id="Path_6" data-name="Path 6" d="M437.026,188.354l-.02,4.066h-5.089c0-1.809.024-3.38.022-3.994C431.925,184.624,437.026,184.553,437.026,188.354Z" transform="translate(-424.504 -185.539)"/>
  <path id="Path_7" data-name="Path 7" d="M495.355,334.772a2.567,2.567,0,1,1-5.1,0v-3.955h5.1C495.355,332.633,495.352,334.157,495.355,334.772Z" transform="translate(-473.808 -308.33)"/>
  <g id="Group_1" data-name="Group 1" transform="translate(35.002 5.936)">
    <path id="Path_8" data-name="Path 8" d="M618.1,242.866v1.566h-7.974V230.008h1.648v12.858Z" transform="translate(-610.127 -229.06)" fill="#231f20"/>
    <path id="Path_9" data-name="Path 9" d="M678.379,226.862a1.053,1.053,0,1,1-1.051-1.113A1.058,1.058,0,0,1,678.379,226.862Zm-1.834,13.97V229.973h1.587v10.859Z" transform="translate(-666.036 -225.46)" fill="#231f20"/>
    <path id="Path_10" data-name="Path 10" d="M710.145,227.326v1.4h3.111v1.319h-3.111v9.211h-1.587v-9.211h-1.4v-1.319h1.4v-1.2a3.419,3.419,0,0,1,3.482-3.647,4.082,4.082,0,0,1,2.328.762l-.659,1.3a2.934,2.934,0,0,0-1.648-.556A1.821,1.821,0,0,0,710.145,227.326Z" transform="translate(-692.136 -223.885)" fill="#231f20"/>
    <path id="Path_11" data-name="Path 11" d="M759.794,258.867h-8.86a3.8,3.8,0,0,0,3.936,3.462,4.532,4.532,0,0,0,3.359-1.36l.886.948a5.705,5.705,0,0,1-4.368,1.813,5.482,5.482,0,0,1-.02-10.962C758.228,252.747,759.959,255.178,759.794,258.867Zm-1.442-1.319a3.384,3.384,0,0,0-3.626-3.4,3.664,3.664,0,0,0-3.792,3.4Z" transform="translate(-727.795 -248.296)" fill="#231f20"/>
  </g>
</svg>
