<svg xmlns="http://www.w3.org/2000/svg" xmlns:xlink="http://www.w3.org/1999/xlink" width="123.796" height="18.424" viewBox="0 0 123.796 18.424">
  <defs>
    <clipPath id="clip-path">
      <rect width="123.796" height="18.424" fill="none"/>
    </clipPath>
  </defs>
  <g id="Logo" clip-path="url(#clip-path)">
    <path id="Path_14" data-name="Path 14" d="M18.088,22.232H16.044s-1.456,4.172-1.456,4.2a7.251,7.251,0,0,1-3.108.672C7.5,27.1,5.264,23.968,5.264,19.1c0-4.48,2.24-7.616,6.132-7.616a7.155,7.155,0,0,1,3.472.84l1.176,4.088h1.932V10.164L15.4,10.78a13.748,13.748,0,0,0-4.228-.672c-5.684,0-9.968,3.668-9.968,9.408,0,5.824,4.172,8.932,9.884,8.932a13.978,13.978,0,0,0,4.62-.812L17.556,28ZM39.7,28l-.084-1.148L38.528,26.6a1.644,1.644,0,0,1-1.344-1.036l-5.292-15.54-3.444,1.008v1.176L25.172,21.28c-1.764,4.816-2.156,5.068-3.388,5.4l-.7.168L21,28h6.468l-.084-1.148-.924-.168c-1.036-.2-1.12-1.12-.364-3.36l.364-1.148h5.712l.5,1.54c.784,2.3.812,2.8-.336,2.968l-1.092.168L31.164,28Zm-7.952-7.2H26.88l2.38-7.056h.252ZM56.308,22.26H54.32l-.7,2.3c-.644,1.932-1.12,2.184-5.488,2.184h-.476V12.292c0-.28.2-.448.98-.532l1.12-.14.084-1.12H41.916L42,11.62l.9.14c.924.112,1.064.252,1.064.5V26.208c0,.308-.252.448-.952.532L42,26.88,41.916,28H55.748ZM67.236,28l-.084-1.12-1.26-.112c-.84-.084-1.008-.224-1.008-.476V12.264c0-.28.2-.448.952-.532l1.316-.112.084-1.12h-8.4l.084,1.12,1.2.112c.9.112,1.064.252,1.064.5v14c0,.308-.28.448-.98.532l-1.288.112L58.836,28Zm19.012-4.648c0-2.464-2.044-4.06-5.376-4.424v-.14c2.576-.392,4.788-1.96,4.788-4.368s-1.932-3.92-6.944-3.92H70.932l.084,1.12.9.112c.924.112,1.064.252,1.064.5v14c0,.308-.252.448-.952.532l-1.008.112L70.932,28H78.38C83.812,28,86.248,26.264,86.248,23.352Zm-3.948.084c0,2.184-1.708,3.416-3.808,3.444l-.28.028-1.54-.308V19.656H77.68C80.312,19.656,82.3,20.86,82.3,23.436Zm-.616-8.288a3.259,3.259,0,0,1-3.5,3.3l-1.512.028v-6.8h1.176C80.424,11.676,81.684,13.1,81.684,15.148Zm19.1,4.536c2.548-.924,4-2.6,4-4.844,0-2.576-2.156-4.34-6.748-4.34H89.86l.084,1.12.9.112c.924.112,1.064.252,1.064.5v14c0,.308-.252.448-.952.532l-1.008.112L89.86,28h7.756l-.084-1.12-.9-.112c-.84-.084-1.036-.224-1.036-.476v-5.88l1.68-.028,2.968,5.4L101.4,28h5.4l-.084-1.12-.784-.168c-.588-.14-.9-.42-1.512-1.288Zm-.028-4.2a3.5,3.5,0,0,1-3.444,3.808L95.6,19.124V11.732s1.092-.028,1.316-.028C99.3,11.62,100.752,12.964,100.752,15.484Zm24.248,7h-2.016l-.616,2.072c-.7,1.932-1.344,2.184-5.936,2.184H115.06V19.8h.616c2.016,0,2.352.224,2.436.924l.28,1.792h1.4l.644-6.776H118.98l-.672,1.9c-.28.784-.952.9-2.548.9h-.7V11.76h1.316c4.452,0,5.068.168,5.628,2.184l.616,2.324h1.9V10.5h-15.2l.084,1.12.9.112c.924.112,1.064.252,1.064.5v14c0,.308-.252.448-.952.532l-1.008.112L109.32,28h15.148Z" transform="translate(-1.204 -10.024)" fill="#2b2b2b"/>
  </g>
</svg>
