<svg id="Group_2" data-name="Group 2" xmlns="http://www.w3.org/2000/svg" width="36.276" height="36.275" viewBox="0 0 36.276 36.275">
  <g id="Ellipse_1" data-name="Ellipse 1" transform="translate(0 0)" fill="#fff" stroke="red" stroke-width="3">
    <ellipse cx="18.138" cy="18.138" rx="18.138" ry="18.138" stroke="none"/>
    <ellipse cx="18.138" cy="18.138" rx="16.638" ry="16.638" fill="none"/>
  </g>
  <g id="warning_1_" data-name="warning (1)" transform="translate(16.324 9.069)">
    <path id="Path_13" data-name="Path 13" d="M221.987,162.048l-.377-5.64q-.106-1.649-.105-2.367a2.147,2.147,0,0,1,.512-1.525,1.758,1.758,0,0,1,1.349-.548,1.357,1.357,0,0,1,1.354.7,4.749,4.749,0,0,1,.341,2.019,15.55,15.55,0,0,1-.082,1.578l-.507,5.806a4.538,4.538,0,0,1-.354,1.59.926.926,0,0,1-.9.553.889.889,0,0,1-.883-.535A5.3,5.3,0,0,1,221.987,162.048Zm1.307,7.748a1.851,1.851,0,0,1-1.254-.464,1.63,1.63,0,0,1-.535-1.3,1.748,1.748,0,0,1,1.766-1.755,1.743,1.743,0,0,1,1.266.512,1.674,1.674,0,0,1,.524,1.243,1.642,1.642,0,0,1-.531,1.3A1.8,1.8,0,0,1,223.295,169.8Z" transform="translate(-221.505 -151.968)" fill="#ed1212"/>
  </g>
</svg>
