<svg xmlns="http://www.w3.org/2000/svg" width="15.667" height="15.667" viewBox="0 0 15.667 15.667">
  <g id="Group_2" data-name="Group 2" transform="translate(-142.167 -274.167)">
    <g id="Ellipse_1" data-name="Ellipse 1" transform="translate(142.167 274.167)" fill="#fff" stroke="red" stroke-width="2">
      <circle cx="7.833" cy="7.833" r="7.833" stroke="none"/>
      <circle cx="7.833" cy="7.833" r="6.833" fill="none"/>
    </g>
    <g id="warning_1_" data-name="warning (1)" transform="translate(149.217 278.084)">
      <path id="Path_13" data-name="Path 13" d="M221.713,156.321l-.163-2.436q-.046-.712-.046-1.022a.927.927,0,0,1,.221-.659.759.759,0,0,1,.582-.237.586.586,0,0,1,.585.3,2.051,2.051,0,0,1,.147.872,6.718,6.718,0,0,1-.035.681l-.219,2.507a1.96,1.96,0,0,1-.153.687.4.4,0,0,1-.387.239.384.384,0,0,1-.381-.231A2.29,2.29,0,0,1,221.713,156.321Zm.565,3.346a.8.8,0,0,1-.542-.2.7.7,0,0,1-.231-.562.755.755,0,0,1,.763-.758.753.753,0,0,1,.547.221.723.723,0,0,1,.226.537.709.709,0,0,1-.229.559A.779.779,0,0,1,222.278,159.668Z" transform="translate(-221.505 -151.968)" fill="#ed1212"/>
    </g>
  </g>
</svg>
