<svg width="23" height="23" viewBox="0 0 23 23" fill="none" xmlns="http://www.w3.org/2000/svg">
<path d="M8.2406 8.13417C8.4606 7.90418 8.7606 7.50692 8.92061 7.08875C9.48061 5.66699 9.22061 5.37427 9.22061 5.37427C8.8606 4.53794 8.0606 3.45071 7.04059 2.36347C6.02058 1.29715 4.96056 0.460817 4.16056 0.0844674C4.16056 0.0844674 2.88054 -0.333699 1.92053 0.690808C1.76053 0.837167 1.64053 0.983525 1.54053 1.10897L8.2406 8.13417Z" fill="white"/>
<path d="M21.9207 18.6511C21.5607 17.8356 20.7607 16.7275 19.7407 15.6403C18.7007 14.553 17.6407 13.7376 16.8607 13.3613C16.8607 13.3613 16.6007 13.0895 15.2207 13.6749C14.8207 13.8422 14.4407 14.1767 14.2207 14.3858L20.9407 21.411C21.0807 21.2855 21.2007 21.1601 21.3407 21.0137C21.3407 21.0137 21.3607 21.0137 21.3407 21.0137C22.3207 19.9892 21.9207 18.6511 21.9207 18.6511Z" fill="white"/>
<path d="M13.5007 15.3893C13.2807 15.6821 12.9607 15.8075 12.5607 15.8075C11.3407 15.8075 9.52065 14.6575 8.74065 13.863C7.72064 12.7967 6.12062 9.78591 7.28063 8.88685C7.34063 8.84503 7.42063 8.80322 7.48063 8.7614L0.940565 1.92438C-0.039445 3.4925 0.000555561 4.72609 0.000555561 4.72609C0.000555561 4.72609 -0.179446 10.3923 5.94062 16.7902C11.7407 22.8327 16.9007 23 17.4407 23C17.4607 23 17.4807 23 17.4807 23C17.4807 23 17.4807 23 17.5007 23C17.6607 23 18.7808 22.9582 20.1608 22.0173L13.6407 15.1803C13.5807 15.243 13.5407 15.3266 13.5007 15.3893Z" fill="white"/>
</svg>
