<svg xmlns="http://www.w3.org/2000/svg" xmlns:xlink="http://www.w3.org/1999/xlink" width="16" height="16" viewBox="0 0 16 16">
  <defs>
    <clipPath id="clip-path">
      <rect width="16" height="16" fill="none"/>
    </clipPath>
  </defs>
  <g id="Pin" clip-path="url(#clip-path)">
    <path id="Path_40" data-name="Path 40" d="M10,2A8,8,0,0,0,7.085,17.451a7.688,7.688,0,0,1,.027-2.3c.146-.625.938-3.977.938-3.977A2.891,2.891,0,0,1,7.811,9.99c0-1.111.645-1.942,1.448-1.942a1,1,0,0,1,1.012,1.127,16.159,16.159,0,0,1-.662,2.664,1.162,1.162,0,0,0,1.184,1.445c1.421,0,2.515-1.5,2.515-3.663A3.158,3.158,0,0,0,9.967,6.367,3.463,3.463,0,0,0,6.354,9.838a3.113,3.113,0,0,0,.6,1.826A.24.24,0,0,1,7,11.893c-.061.252-.2.8-.222.907-.035.147-.116.178-.268.107a3.587,3.587,0,0,1-1.623-3.1c0-2.523,1.833-4.841,5.286-4.841a4.694,4.694,0,0,1,4.932,4.62c0,2.758-1.738,4.975-4.151,4.975a2.141,2.141,0,0,1-1.834-.918l-.5,1.9a8.94,8.94,0,0,1-.994,2.1A8,8,0,1,0,10,2" transform="translate(-2 -2)" fill="#111"/>
  </g>
</svg>
