<svg id="play" xmlns="http://www.w3.org/2000/svg" width="60.027" height="60.027" viewBox="0 0 60.027 60.027">
  <path id="Path_34" data-name="Path 34" d="M221.347,164.785,204.8,153.465a1.272,1.272,0,0,0-2,1.054v22.639a1.27,1.27,0,0,0,2,1.054l16.55-11.319A1.273,1.273,0,0,0,221.347,164.785Zm-15.987,9.96V156.932l13,8.906Z" transform="translate(-179.304 -135.825)" fill="#f2f2f2"/>
  <path id="Path_35" data-name="Path 35" d="M41.013,11A30.013,30.013,0,1,0,71.027,41.013,30.046,30.046,0,0,0,41.013,11Zm0,57.467A27.453,27.453,0,1,1,68.467,41.013,27.479,27.479,0,0,1,41.013,68.467Z" transform="translate(-11 -11)" fill="#f2f2f2"/>
</svg>
