<svg xmlns="http://www.w3.org/2000/svg" xmlns:xlink="http://www.w3.org/1999/xlink" width="19.699" height="16" viewBox="0 0 19.699 16">
  <defs>
    <clipPath id="clip-path">
      <rect width="19.699" height="16" fill="none"/>
    </clipPath>
  </defs>
  <g id="Twitter" clip-path="url(#clip-path)">
    <path id="Path_26" data-name="Path 26" d="M19.675,8.006c.013.175.013.35.013.524A11.409,11.409,0,0,1,8.2,20.019,11.408,11.408,0,0,1,2,18.206a8.437,8.437,0,0,0,.975.05,8.089,8.089,0,0,0,5.013-1.725,4.046,4.046,0,0,1-3.776-2.8,5.142,5.142,0,0,0,.763.062,4.3,4.3,0,0,0,1.064-.137A4.037,4.037,0,0,1,2.8,9.693v-.05a4.074,4.074,0,0,0,1.824.512,4.043,4.043,0,0,1-1.251-5.4A11.484,11.484,0,0,0,11.7,8.982a4.588,4.588,0,0,1-.1-.925,4.041,4.041,0,0,1,6.988-2.763,7.976,7.976,0,0,0,2.562-.975,4.03,4.03,0,0,1-1.775,2.225A8.092,8.092,0,0,0,21.7,5.919a8.666,8.666,0,0,1-2.024,2.088Z" transform="translate(-2 -4.019)" fill="#2b2b2b"/>
  </g>
</svg>
